<svg aria-hidden="true" style="position: absolute; width: 0; height: 0; overflow: hidden;" version="1.1" xmlns="http://www.w3.org/2000/svg" xmlns:xlink="http://www.w3.org/1999/xlink">
<defs>
<symbol id="icon-search__lens" viewBox="0 0 32 32">
<path fill="#999" style="fill: var(--color1, #999)" d="M31.097 28.636l-5.893-5.876c1.901-2.422 2.933-5.414 2.929-8.493 0-2.743-0.813-5.424-2.337-7.704s-3.689-4.058-6.223-5.107c-2.534-1.050-5.322-1.324-8.012-0.789s-5.161 1.856-7.1 3.795c-1.939 1.939-3.26 4.41-3.795 7.1s-0.26 5.478 0.789 8.012c1.050 2.534 2.827 4.699 5.107 6.223s4.961 2.337 7.704 2.337c3.080 0.004 6.071-1.028 8.493-2.929l5.876 5.893c0.161 0.163 0.353 0.292 0.564 0.38s0.438 0.133 0.667 0.133 0.455-0.045 0.667-0.133c0.211-0.088 0.403-0.217 0.564-0.38 0.163-0.161 0.292-0.353 0.38-0.564s0.133-0.438 0.133-0.667c0-0.229-0.045-0.455-0.133-0.667s-0.217-0.403-0.38-0.564zM3.867 14.267c0-2.057 0.61-4.068 1.753-5.778s2.767-3.043 4.667-3.83c1.9-0.787 3.991-0.993 6.009-0.592s3.87 1.392 5.325 2.846c1.454 1.454 2.445 3.308 2.846 5.325s0.195 4.109-0.592 6.009c-0.787 1.9-2.12 3.525-3.83 4.667s-3.721 1.753-5.778 1.753c-2.758 0-5.404-1.096-7.354-3.046s-3.046-4.596-3.046-7.354z"></path>
</symbol>
<symbol id="icon-shop-basket" viewBox="0 0 31 32">
<path fill="none" stroke="#f5c265" style="stroke: var(--color1, #f5c265)" stroke-linejoin="round" stroke-linecap="round" stroke-miterlimit="4" stroke-width="2.1333" d="M6.72 12.764h-3.52l2.24 13.719h19.467l1.76-13.719h-3.52M6.72 12.764l4.693-8.35M6.72 12.764h16.427M23.147 12.764l-4.693-8.35"></path>
<path fill="none" stroke="#f5c265" style="stroke: var(--color1, #f5c265)" stroke-linejoin="round" stroke-linecap="round" stroke-miterlimit="4" stroke-width="2.1333" d="M9.37 16.813v5.024"></path>
<path fill="none" stroke="#f5c265" style="stroke: var(--color1, #f5c265)" stroke-linejoin="round" stroke-linecap="round" stroke-miterlimit="4" stroke-width="2.1333" d="M15.135 16.813v5.024"></path>
<path fill="none" stroke="#f5c265" style="stroke: var(--color1, #f5c265)" stroke-linejoin="round" stroke-linecap="round" stroke-miterlimit="4" stroke-width="2.1333" d="M20.901 16.813v5.024"></path>
</symbol>
<symbol id="icon-left-arrow" viewBox="0 0 50 32">
<path fill="none" stroke="#849d8a" style="stroke: var(--color1, #849d8a)" stroke-linejoin="miter" stroke-linecap="butt" stroke-miterlimit="4" stroke-width="0.7619" d="M0.381 16c0 8.626 6.993 15.619 15.619 15.619s15.619-6.993 15.619-15.619c0-8.626-6.993-15.619-15.619-15.619s-15.619 6.993-15.619 15.619z"></path>
<path fill="#849d8a" style="fill: var(--color1, #849d8a)" d="M12.683 16.269c-0.149-0.149-0.149-0.39 0-0.539l2.424-2.424c0.149-0.149 0.39-0.149 0.539 0s0.149 0.39 0 0.539l-2.155 2.155 2.155 2.155c0.149 0.149 0.149 0.39 0 0.539s-0.39 0.149-0.539 0l-2.424-2.424zM50.286 16.381h-37.333v-0.762h37.333v0.762z"></path>
</symbol>
<symbol id="icon-right-arrow" viewBox="0 0 50 32">
<path fill="none" stroke="#849d8a" style="stroke: var(--color1, #849d8a)" stroke-linejoin="miter" stroke-linecap="butt" stroke-miterlimit="4" stroke-width="0.7619" d="M49.905 16c0 8.626-6.993 15.619-15.619 15.619s-15.619-6.993-15.619-15.619c0-8.626 6.993-15.619 15.619-15.619s15.619 6.993 15.619 15.619z"></path>
<path fill="#849d8a" style="fill: var(--color1, #849d8a)" d="M37.603 16.269c0.149-0.149 0.149-0.39 0-0.539l-2.424-2.424c-0.149-0.149-0.39-0.149-0.539 0s-0.149 0.39 0 0.539l2.155 2.155-2.155 2.155c-0.149 0.149-0.149 0.39 0 0.539s0.39 0.149 0.539 0l2.424-2.424zM0 16.381h37.333v-0.762h-37.333v0.762z"></path>
</symbol>
<symbol id="icon-order-icon-terms-of-del" viewBox="0 0 42 32">
<path fill="#666" style="fill: var(--color1, #666)" d="M18.895 0.126c-0.857 0.31-1.412 1.101-1.412 2.013 0 0.282 0.123 1.251 0.273 2.154s0.241 1.671 0.202 1.706c-0.039 0.035-0.434 0.135-0.878 0.222-2.373 0.464-5.15 1.765-7.262 3.4-0.76 0.589-2.297 2.117-2.939 2.922-1.788 2.244-3.143 5.171-3.645 7.874-0.289 1.557-0.363 2.484-0.364 4.56l-0.001 1.932h-1.214c-1.17 0-1.223 0.008-1.434 0.223-0.211 0.214-0.22 0.272-0.22 1.399 0 0.991 0.025 1.204 0.157 1.356 0.086 0.099 0.848 0.615 1.692 1.147l1.535 0.967h34.838l1.602-1.011c0.881-0.556 1.641-1.085 1.689-1.176s0.087-0.681 0.087-1.311c0-1.096-0.010-1.156-0.22-1.37-0.212-0.215-0.265-0.223-1.435-0.223h-1.214v-1.913c0-3.242-0.325-5.252-1.226-7.568l-0.31-0.798 0.579-0.634c1.836-2.011 2.212-5.014 0.936-7.485-0.529-1.025-1.626-2.138-2.636-2.674-2.438-1.294-5.398-0.913-7.383 0.952l-0.628 0.59-0.65-0.273c-0.896-0.376-1.974-0.7-2.983-0.897-0.707-0.138-0.85-0.194-0.85-0.334-0-0.092 0.124-0.911 0.276-1.818 0.376-2.241 0.316-2.735-0.419-3.459-0.519-0.511-0.925-0.602-2.675-0.597-1.042 0.003-1.638 0.043-1.867 0.126zM22.463 1.674c0.121 0.123 0.221 0.317 0.222 0.432s-0.126 0.996-0.283 1.959l-0.285 1.75h-1.241c-0.683 0-1.27 0.010-1.305 0.023-0.066 0.023-0.637-3.23-0.647-3.686-0.003-0.154 0.081-0.342 0.215-0.477 0.215-0.218 0.25-0.223 1.663-0.223s1.447 0.005 1.663 0.223zM33.94 6.64c0.865 0.158 1.916 0.726 2.568 1.387 1.005 1.020 1.458 2.139 1.458 3.607 0 1.458-0.453 2.588-1.437 3.586s-2.098 1.457-3.537 1.457c-1.448 0-2.552-0.459-3.557-1.478-2.4-2.434-1.707-6.615 1.343-8.106 1.071-0.524 2.027-0.661 3.162-0.453zM22.485 7.367c1.473 0.164 3.745 0.738 4.525 1.144 0.235 0.122 0.241 0.141 0.122 0.376-0.569 1.117-0.75 2.898-0.426 4.196 0.569 2.283 2.144 4.013 4.361 4.791 0.636 0.223 0.849 0.252 1.883 0.257 1.217 0.005 1.661-0.075 2.532-0.459 0.547-0.241 0.491-0.29 0.862 0.76 0.676 1.915 0.864 3.142 0.925 6.046l0.051 2.432h-33.015v-1.867c0-2.826 0.212-4.35 0.888-6.402 0.664-2.015 1.884-4.146 3.298-5.762 3.471-3.966 8.849-6.084 13.995-5.511zM32.276 9.816v1.091h-2.152v1.455h2.152v2.182h1.435v-2.182h2.152v-1.455h-2.152v-2.182h-1.435v1.091zM12.401 11.355c-3.242 2.213-5.594 5.793-6.353 9.672-0.154 0.787-0.154 0.805 0.022 1.046 0.135 0.183 0.271 0.251 0.546 0.272 0.523 0.040 0.667-0.148 0.866-1.123 0.353-1.735 1.12-3.556 2.142-5.087 0.716-1.074 2.37-2.75 3.488-3.536 0.9-0.633 1.040-0.826 0.927-1.281-0.055-0.222-0.454-0.502-0.715-0.502-0.073 0-0.489 0.243-0.923 0.54zM40.148 28.742l-0.028 0.379-2.311 1.424h-34.007l-2.368-1.466v-0.716h38.741l-0.028 0.379z"></path>
</symbol>
<symbol id="icon-payment-icon-terms-of-del" viewBox="0 0 42 32">
<path fill="#666" style="fill: var(--color1, #666)" d="M27.959 1.661c-2.35 0.909-4.355 1.734-4.457 1.832-0.182 0.175-0.185 0.267-0.185 4.878 0 4.929 0.026 5.334 0.426 6.535 0.502 1.506 1.605 3.095 2.821 4.062 0.837 0.665 5.584 3.42 5.894 3.42 0.129 0 1.045-0.472 2.121-1.094 1.042-0.601 1.932-1.093 1.979-1.093 0.051 0 0.084 1.808 0.082 4.527-0.002 4.275-0.012 4.548-0.177 4.897-0.101 0.213-0.302 0.445-0.476 0.547-0.3 0.176-0.382 0.177-16.917 0.155l-16.616-0.022-0.243-0.219c-0.527-0.474-0.499 0.083-0.499-9.794v-9.103h19.389l0.266-0.256c0.374-0.36 0.334-0.893-0.090-1.207-0.111-0.082-2.365-0.107-9.854-0.109l-9.71-0.003 0-1.115c0-1.346 0.105-1.624 0.724-1.925l0.406-0.197h18.259l0.266-0.256c0.358-0.344 0.358-0.719-0.002-1.065l-0.268-0.257-18.885 0.047-0.481 0.244c-0.95 0.481-1.498 1.227-1.665 2.265-0.055 0.345-0.079 4.656-0.063 11.445l0.026 10.892 0.257 0.535c0.32 0.666 0.853 1.176 1.562 1.494l0.546 0.245 16.419 0.026c12.022 0.019 16.564-0.001 16.962-0.074 1.030-0.189 1.778-0.744 2.217-1.645l0.241-0.494 0.025-5.354 0.025-5.354 0.702-0.698c1.23-1.222 2.058-2.735 2.446-4.473 0.15-0.669 0.166-1.222 0.166-5.497v-4.753l-0.24-0.198c-0.285-0.236-8.629-3.465-8.925-3.453-0.113 0.004-2.127 0.752-4.476 1.661zM36.279 3.124l3.593 1.384 0.025 4.238c0.021 3.597 0.003 4.343-0.12 4.933-0.297 1.422-0.985 2.636-2.086 3.68-0.631 0.598-1.067 0.889-2.986 1.996l-2.247 1.296-2.247-1.296c-1.919-1.107-2.355-1.398-2.985-1.996-1.101-1.044-1.789-2.258-2.086-3.68-0.123-0.589-0.141-1.336-0.12-4.933l0.025-4.238 3.684-1.421c2.026-0.782 3.745-1.404 3.82-1.383s1.753 0.661 3.729 1.422zM33.371 9.571l-2.053 1.967-0.908-0.872c-1.074-1.032-1.307-1.126-1.779-0.72-0.24 0.206-0.303 0.327-0.303 0.584 0 0.301 0.096 0.416 1.379 1.642 1.372 1.312 1.38 1.318 1.721 1.264 0.299-0.047 0.637-0.337 2.684-2.305 1.288-1.238 2.39-2.361 2.447-2.496 0.211-0.489-0.22-1.032-0.82-1.032-0.291 0-0.481 0.158-2.369 1.967zM5.287 25.822c-0.405 0.425-0.329 1.006 0.164 1.251 0.378 0.188 7.064 0.188 7.442 0 0.493-0.245 0.569-0.825 0.164-1.251l-0.187-0.197h-7.395l-0.187 0.197z"></path>
</symbol>
<symbol id="icon-packing-icon-terms-of-del" viewBox="0 0 35 32">
<path fill="#666" style="fill: var(--color1, #666)" d="M16.84 0.070c-2.157 0.378-3.913 1.597-4.889 3.394l-0.234 0.431-5.607 1.613c-3.084 0.887-5.688 1.657-5.787 1.709-0.297 0.158-0.408 0.5-0.253 0.783 0.041 0.075 1.005 0.999 2.141 2.052l2.066 1.915-1.329 2.048c-0.998 1.538-1.329 2.099-1.329 2.251 0 0.416 0.114 0.474 2.236 1.127l1.963 0.604v4.88c0 4.477 0.010 4.894 0.115 5.059 0.063 0.099 0.162 0.198 0.22 0.22 0.738 0.281 11.093 3.842 11.171 3.842 0.059 0 2.903-0.861 6.32-1.912 5.61-1.727 6.228-1.931 6.383-2.1l0.171-0.188v-10.053l1.067-0.312c0.586-0.171 1.51-0.44 2.052-0.597s1.052-0.343 1.133-0.413c0.18-0.154 0.248-0.378 0.187-0.609-0.030-0.112-0.755-0.829-2.089-2.065l-2.043-1.893 2.007-1.86c1.103-1.023 2.040-1.922 2.081-1.997 0.186-0.339 0.005-0.714-0.415-0.858-0.159-0.055-2.224-0.649-4.59-1.321-5.719-1.625-5.123-1.431-5.219-1.706-0.121-0.348-0.504-1.037-0.803-1.444-0.908-1.235-2.346-2.147-3.966-2.515-0.734-0.167-2.065-0.208-2.76-0.086zM19.364 1.385c1.865 0.441 3.418 1.885 3.901 3.626 0.17 0.614 0.17 1.846-0 2.439-0.731 2.551-3.424 4.154-6.206 3.696-1.89-0.312-3.56-1.64-4.164-3.313-1.066-2.956 0.913-5.976 4.29-6.546 0.458-0.077 1.667-0.023 2.179 0.098zM21.055 3.831c-0.092 0.056-0.966 0.836-1.942 1.733l-1.775 1.63-0.46-0.409c-0.253-0.225-0.532-0.444-0.619-0.487-0.236-0.116-0.582-0.032-0.785 0.19-0.35 0.384-0.205 0.653 0.861 1.601 0.662 0.589 0.856 0.69 1.184 0.614 0.194-0.045 3.983-3.466 4.359-3.936 0.265-0.331 0.256-0.557-0.035-0.826-0.259-0.24-0.517-0.276-0.787-0.11zM11.259 5.848c-0.073 0.88 0.201 2.244 0.595 2.961 0.070 0.128 0.128 0.245 0.128 0.261s-1.493 0.488-3.319 1.050l-3.319 1.021-3.384-3.127 4.587-1.324c2.523-0.729 4.625-1.327 4.67-1.329 0.062-0.003 0.072 0.12 0.041 0.488zM28.894 6.932l3.808 1.081-3.383 3.126-2.726-0.837c-1.499-0.46-2.736-0.844-2.747-0.853s0.076-0.195 0.196-0.414c0.439-0.803 0.649-1.566 0.718-2.601 0.041-0.622 0.050-0.65 0.185-0.618 0.078 0.019 1.855 0.52 3.95 1.115zM13.231 10.635c2.037 1.882 5.085 2.372 7.656 1.232 0.653-0.29 1.593-0.883 1.918-1.211l0.157-0.159 2.162 0.665c1.189 0.366 2.162 0.68 2.162 0.697s-2.24 0.722-4.978 1.564l-4.978 1.531-4.978-1.531c-2.738-0.842-4.978-1.546-4.978-1.564 0-0.022 4.68-1.499 5.334-1.684 0.010-0.003 0.244 0.204 0.52 0.459zM10.983 14.314l5.333 1.642-1.056 1.626c-0.581 0.894-1.066 1.636-1.079 1.648s-2.463-0.729-5.444-1.647l-5.421-1.669 0.084-0.143c0.046-0.079 0.525-0.822 1.065-1.652 0.714-1.098 1.009-1.501 1.084-1.478 0.056 0.017 2.503 0.769 5.436 1.673zM31.029 14.158l1.675 1.548-5.705 1.652c-3.138 0.909-5.735 1.66-5.773 1.67-0.069 0.018-2.718-3.019-2.697-3.092 0.013-0.046 10.564-3.315 10.722-3.322 0.056-0.003 0.856 0.692 1.777 1.543zM19.327 18.912c1.34 1.551 1.362 1.567 1.966 1.408 0.186-0.049 1.93-0.551 3.875-1.116s3.568-1.027 3.606-1.027c0.047 0 0.070 1.467 0.070 4.498v4.498l-5.333 1.641c-2.933 0.902-5.371 1.654-5.418 1.669-0.067 0.023-0.085-1.309-0.085-6.527 0-3.663 0.026-6.529 0.058-6.496s0.599 0.686 1.26 1.451zM16.627 30.42c-0.016 0.014-2.141-0.704-4.724-1.597l-4.696-1.623-0.017-4.386c-0.010-2.413-0.009-4.387 0.001-4.387s1.617 0.493 3.572 1.095c1.955 0.602 3.621 1.095 3.704 1.095 0.368 0 0.495-0.136 1.329-1.42l0.825-1.271 0.017 6.234c0.009 3.429 0.004 6.246-0.011 6.26zM10.323 23.175c-0.215 0.085-0.375 0.285-0.417 0.521-0.032 0.182-0.004 0.253 0.165 0.429 0.168 0.174 0.252 0.21 0.481 0.21 0.794 0 0.891-1.062 0.108-1.182-0.112-0.017-0.264-0.007-0.339 0.022zM12.821 24.030c-0.404 0.186-0.493 0.68-0.171 0.956 0.214 0.183 1.654 0.703 1.97 0.711 0.559 0.015 0.859-0.598 0.495-1.008-0.113-0.127-1.438-0.632-1.88-0.717-0.126-0.024-0.283-0.002-0.414 0.058zM10.214 25.839c-0.359 0.18-0.416 0.691-0.107 0.957 0.198 0.17 4.27 1.577 4.564 1.577 0.587 0 0.831-0.747 0.352-1.077-0.224-0.154-4.248-1.549-4.463-1.547-0.093 0.001-0.249 0.042-0.346 0.091z"></path>
</symbol>
<symbol id="icon-delivery-icon-terms-of-del" viewBox="0 0 35 32">
<path fill="#666" style="fill: var(--color1, #666)" d="M17.607 0.113c-1.335 0.377-2.428 1.359-3.024 2.71-0.312 0.717-0.405 1.298-0.369 2.28 0.050 1.246 0.398 2.144 1.2 3.072l0.348 0.408-0.263 0.091c-1.377 0.468-2.719 2.061-3.393 4.039-0.163 0.476-0.156 0.46-0.305 0.317-0.362-0.347-0.447-0.355-4.146-0.355-3.947 0-3.798-0.015-4.352 0.596-0.227 0.257-0.284 0.37-0.284 0.611 0 0.332 0.177 0.581 0.426 0.604 0.327 0.038 0.454-0.015 0.696-0.264 0.256-0.264 0.263-0.264 0.902-0.264h0.639v0.989c0 0.544 0.028 1.049 0.071 1.125 0.128 0.249 0.469 0.302 1.917 0.302s1.789-0.053 1.917-0.302c0.043-0.075 0.071-0.604 0.071-1.178v-1.034l0.596 0.038c0.717 0.038 0.93 0.159 1.036 0.596 0.050 0.196 0.071 1.102 0.057 2.589-0.021 2.582-0.028 2.612-0.554 2.763-0.192 0.053-1.299 0.076-3.294 0.060-2.939-0.023-3.017-0.030-3.216-0.181-0.106-0.091-0.206-0.219-0.22-0.287-0.021-0.106 0.064-0.121 0.653-0.121 0.809 0 0.965-0.098 0.965-0.604 0-0.513-0.156-0.604-0.994-0.604h-0.71v-1.208h0.426c0.334 0 0.454-0.030 0.568-0.151 0.192-0.204 0.192-0.702 0-0.906-0.135-0.143-0.234-0.151-1.846-0.151s-1.711 0.008-1.846 0.151c-0.192 0.204-0.192 0.702 0 0.906 0.121 0.128 0.234 0.151 0.852 0.151h0.71v1.208h-1.278c-1.186 0-1.285 0.008-1.42 0.151-0.192 0.204-0.192 0.702 0 0.906 0.135 0.143 0.234 0.151 1.42 0.151h1.278v0.204c0.007 0.513 0.49 1.208 1.029 1.465 0.248 0.121 0.49 0.143 1.895 0.143h1.619l-0.256 0.355c-0.348 0.491-0.632 1.11-0.916 2.008-0.348 1.125-0.461 1.782-0.511 2.929-0.057 1.389-0.092 1.351 1.249 1.351h0.98l0.121 0.506c0.199 0.898 0.568 1.578 1.207 2.257 0.632 0.664 1.015 0.921 1.817 1.223 0.469 0.174 0.646 0.196 1.42 0.196s0.951-0.023 1.42-0.196c0.802-0.302 1.186-0.559 1.817-1.223 0.639-0.679 1.008-1.359 1.207-2.257l0.121-0.506h8.476l0.114 0.513c0.334 1.434 1.2 2.597 2.414 3.216 0.781 0.4 1.193 0.498 2.059 0.498 0.831 0 1.42-0.151 2.109-0.529 1.342-0.747 2.25-2.144 2.406-3.729 0.284-2.77-1.547-5.179-4.096-5.39l-0.589-0.053-0.994-2.446c-0.539-1.351-0.973-2.461-0.958-2.476s0.107 0.008 0.213 0.053c0.106 0.038 0.383 0.076 0.618 0.076 0.738 0 0.703 0.159 0.703-3.020 0-2.672 0-2.718-0.149-2.876-0.135-0.143-0.213-0.159-0.696-0.128-0.916 0.060-1.817 0.672-2.208 1.502-0.085 0.181-0.17 0.347-0.185 0.362s-0.142-0.083-0.291-0.219c-0.461-0.438-0.823-0.559-1.548-0.536-1.675 0.060-1.846 0.023-2.321-0.43-0.27-0.257-0.745-0.876-1.008-1.314l-0.128-0.204 0.312-0.083c0.618-0.174 1.122-0.702 1.342-1.419 0.043-0.143 0.185-0.362 0.319-0.483 0.319-0.302 0.554-0.83 0.504-1.163-0.021-0.136-0.156-0.453-0.291-0.687-0.248-0.438-0.433-1.087-0.369-1.283 0.021-0.053 0.085-0.098 0.142-0.098 0.206 0 0.327-0.317 0.327-0.853 0-2.016-1.455-3.933-3.386-4.461-0.547-0.151-1.761-0.151-2.293 0zM19.879 1.464c0.504 0.189 0.859 0.445 1.285 0.921 0.433 0.483 0.625 0.83 0.795 1.434l0.106 0.385-1.143 0.030c-1.036 0.023-1.178 0.045-1.455 0.196-0.447 0.249-0.809 0.634-1.051 1.087-0.199 0.393-0.206 0.43-0.227 1.623l-0.028 1.215-0.362-0.113c-0.575-0.181-0.902-0.385-1.37-0.861-0.76-0.778-1.058-1.593-1.008-2.74 0.021-0.604 0.057-0.762 0.291-1.276 0.752-1.691 2.549-2.514 4.167-1.902zM21.583 5.707c0.007 0.43 0.128 0.906 0.369 1.449 0.241 0.536 0.248 0.476-0.177 0.785-0.071 0.053-0.17 0.272-0.227 0.491-0.227 0.944-0.618 1.102-1.775 0.71l-0.426-0.143-0.021-1.049c-0.021-1.306 0.057-1.759 0.376-2.106 0.284-0.294 0.618-0.393 1.37-0.408l0.511-0.008v0.279zM18.395 9.95c0.618 0.249 1.093 0.725 1.895 1.887 0.596 0.883 1.157 1.464 1.64 1.721 0.22 0.113 0.405 0.211 0.412 0.211s-0.064 0.234-0.163 0.528c-0.092 0.287-0.17 0.687-0.17 0.891 0 0.355-0.007 0.355-0.192 0.31-0.114-0.023-0.518-0.211-0.909-0.408-0.852-0.438-1.441-0.974-2.002-1.834-0.405-0.611-0.611-0.77-0.916-0.687-0.227 0.060-0.454 0.377-0.454 0.627 0 0.204 0.291 0.762 0.61 1.163l0.17 0.219-0.241 0.355c-0.298 0.43-0.731 1.374-0.795 1.721l-0.043 0.249h-4.763l0.050-0.498c0.121-1.23 0.582-2.997 1.044-3.971 0.752-1.585 1.853-2.567 3.031-2.687 0.625-0.068 1.306 0.008 1.796 0.204zM28.398 14.486v1.668l-0.199-0.113c-0.916-0.506-1.157-1.812-0.497-2.695 0.085-0.113 0.611-0.521 0.667-0.521 0.014 0 0.028 0.747 0.028 1.661zM24.919 13.928c0.312 0.136 0.518 0.393 0.667 0.845l0.099 0.302-0.341 0.159c-0.405 0.189-1.072 0.355-1.682 0.423l-0.447 0.045v-0.385c0-0.642 0.355-1.193 0.902-1.397 0.355-0.136 0.461-0.136 0.802 0.008zM8.521 14.486v0.604h-1.704v-1.208h1.704v0.604zM19.68 15.868c0.554 0.4 1.398 0.785 2.023 0.921 0.256 0.060 0.476 0.121 0.497 0.143 0.021 0.015 0.398 1.729 0.852 3.797 0.866 3.986 0.887 4.159 0.618 4.718-0.213 0.445-0.454 0.657-0.454 0.4 0-0.219-0.348-0.845-0.603-1.079-0.284-0.272-0.753-0.544-0.923-0.544-0.099 0-0.114-0.219-0.099-2.023 0.007-1.857-0.007-2.053-0.142-2.514-0.369-1.238-1.342-2.242-2.52-2.604l-0.454-0.136 0.135-0.37c0.121-0.325 0.525-1.034 0.589-1.034 0.014 0 0.227 0.151 0.483 0.325zM27.503 19.582l1.327 3.284-1.235 1.834-1.228 1.827-1.867 0.045 0.206-0.438c0.518-1.102 0.504-1.314-0.426-5.541-0.426-1.963-0.781-3.593-0.781-3.624 0-0.038 0.17-0.068 0.383-0.068 0.504 0 1.292-0.181 1.803-0.408 0.22-0.098 0.426-0.181 0.447-0.189 0.028 0 0.646 1.472 1.37 3.276zM17.905 18.185c0.717 0.113 1.214 0.34 1.654 0.762 0.738 0.725 0.887 1.351 0.887 3.82v1.381h-2.257l-0.028-1.079c-0.021-0.974-0.043-1.11-0.213-1.502-0.241-0.559-0.795-1.147-1.32-1.404-0.405-0.204-0.412-0.204-2.307-0.226-1.675-0.023-1.903-0.038-1.867-0.136 0.021-0.068 0.043-0.476 0.043-0.906v-0.785h2.47c1.356 0 2.676 0.038 2.939 0.076zM16.081 21.333c0.334 0.189 0.61 0.491 0.788 0.853 0.106 0.219 0.135 0.528 0.163 1.857l0.043 1.593 0.227 0.46 0.227 0.468h-10.641v-0.309c0-1.163 0.76-3.473 1.384-4.212 0.312-0.362 0.973-0.74 1.462-0.83 0.213-0.038 1.661-0.068 3.223-0.060 2.761 0.015 2.847 0.023 3.124 0.181zM31.060 23.749c1.406 0.453 2.378 1.849 2.378 3.412 0 1.993-1.469 3.556-3.337 3.556-1.484 0-2.811-1.049-3.223-2.552l-0.106-0.393h1.114l0.050 0.219c0.064 0.31 0.461 0.876 0.795 1.14 0.405 0.317 0.817 0.453 1.377 0.453 0.944 0 1.718-0.521 2.101-1.411 0.149-0.34 0.185-0.536 0.185-1.012 0-0.521-0.035-0.664-0.227-1.079-0.255-0.559-0.582-0.898-1.122-1.155-0.49-0.242-1.235-0.257-1.782-0.038l-0.376 0.151 0.128-0.204c0.071-0.113 0.291-0.445 0.483-0.747l0.355-0.536 0.426 0.045c0.234 0.015 0.589 0.091 0.781 0.151zM21.568 25.531c0.263 0.151 0.511 0.536 0.511 0.785 0 0.143-0.050 0.166-0.547 0.211-0.774 0.083-1.917 0.008-2.258-0.143-0.327-0.143-0.71-0.513-0.859-0.823l-0.106-0.211 1.512 0.023c1.292 0.023 1.548 0.045 1.746 0.159zM30.669 26.21c0.682 0.483 0.682 1.434 0 1.918-0.405 0.294-1.037 0.211-1.377-0.196l-0.135-0.159h0.61c0.738 0 0.902-0.106 0.902-0.604 0-0.491-0.163-0.604-0.894-0.604-0.561 0-0.603-0.008-0.518-0.128 0.334-0.423 1.001-0.528 1.413-0.226zM10.324 27.969c0.121 0.506 0.674 1.14 1.242 1.419 0.461 0.219 1.398 0.219 1.86 0 0.568-0.279 1.122-0.913 1.242-1.419 0.043-0.189 0.064-0.196 0.603-0.196h0.554l-0.107 0.393c-0.412 1.502-1.739 2.552-3.223 2.552s-2.811-1.049-3.223-2.552l-0.107-0.393h0.554c0.54 0 0.561 0.008 0.603 0.196zM13.305 27.931c-0.206 0.242-0.49 0.37-0.809 0.37s-0.603-0.128-0.809-0.37l-0.135-0.159h1.888l-0.135 0.159z"></path>
</symbol>
<symbol id="icon-Group-app-store" viewBox="0 0 91 32">
<path fill="#fff" style="fill: var(--color1, #fff)" d="M5.333 0h80c2.946 0 5.333 2.388 5.333 5.333v21.333c0 2.946-2.388 5.333-5.333 5.333h-80c-2.946 0-5.333-2.388-5.333-5.333v-21.333c0-2.946 2.388-5.333 5.333-5.333z"></path>
<path fill="#1b1b1b" style="fill: var(--color2, #1b1b1b)" d="M20.851 15.222c-0.009-1.598 0.715-2.803 2.177-3.691-0.818-1.172-2.055-1.816-3.687-1.941-1.545-0.122-3.234 0.9-3.853 0.9-0.654 0-2.149-0.858-3.326-0.858-2.428 0.038-5.009 1.936-5.009 5.798 0 1.141 0.209 2.32 0.626 3.534 0.558 1.598 2.569 5.515 4.666 5.452 1.097-0.026 1.873-0.778 3.3-0.778 1.385 0 2.102 0.778 3.326 0.778 2.116-0.030 3.935-3.591 4.465-5.194-2.838-1.338-2.686-3.919-2.686-4.001zM18.387 8.074c1.188-1.411 1.080-2.695 1.045-3.157-1.050 0.061-2.264 0.715-2.955 1.519-0.762 0.862-1.209 1.929-1.113 3.131 1.134 0.087 2.17-0.497 3.023-1.493z"></path>
<path fill="#1b1b1b" style="fill: var(--color2, #1b1b1b)" d="M29.841 24l2.987-6.533h0.681l2.987 6.533h-0.728l-2.744-6.132h0.28l-2.744 6.132h-0.719zM31.017 22.255l0.205-0.56h3.799l0.205 0.56h-4.209zM40.013 24.047c-0.423 0-0.806-0.096-1.148-0.289-0.342-0.199-0.616-0.482-0.821-0.849-0.199-0.373-0.299-0.828-0.299-1.363s0.1-0.986 0.299-1.353c0.199-0.373 0.47-0.656 0.812-0.849s0.728-0.289 1.157-0.289c0.467 0 0.884 0.106 1.251 0.317 0.373 0.205 0.666 0.498 0.877 0.877 0.212 0.373 0.317 0.806 0.317 1.297 0 0.498-0.106 0.933-0.317 1.307s-0.504 0.666-0.877 0.877c-0.367 0.212-0.784 0.317-1.251 0.317zM37.483 25.811v-6.711h0.635v1.475l-0.065 0.98 0.093 0.989v3.267h-0.663zM39.966 23.459c0.348 0 0.66-0.078 0.933-0.233 0.274-0.162 0.492-0.386 0.653-0.672 0.162-0.292 0.243-0.628 0.243-1.008s-0.081-0.712-0.243-0.999c-0.162-0.286-0.38-0.51-0.653-0.672s-0.585-0.243-0.933-0.243c-0.348 0-0.663 0.081-0.943 0.243-0.274 0.162-0.492 0.386-0.653 0.672-0.156 0.286-0.233 0.619-0.233 0.999s0.078 0.716 0.233 1.008c0.162 0.286 0.38 0.51 0.653 0.672 0.28 0.156 0.594 0.233 0.943 0.233zM46.385 24.047c-0.423 0-0.806-0.096-1.148-0.289-0.342-0.199-0.616-0.482-0.821-0.849-0.199-0.373-0.299-0.828-0.299-1.363s0.1-0.986 0.299-1.353c0.199-0.373 0.47-0.656 0.812-0.849s0.728-0.289 1.157-0.289c0.467 0 0.884 0.106 1.251 0.317 0.373 0.205 0.666 0.498 0.877 0.877 0.212 0.373 0.317 0.806 0.317 1.297 0 0.498-0.106 0.933-0.317 1.307s-0.504 0.666-0.877 0.877c-0.367 0.212-0.784 0.317-1.251 0.317zM43.856 25.811v-6.711h0.635v1.475l-0.065 0.98 0.093 0.989v3.267h-0.663zM46.338 23.459c0.348 0 0.66-0.078 0.933-0.233 0.274-0.162 0.492-0.386 0.653-0.672 0.162-0.292 0.243-0.628 0.243-1.008s-0.081-0.712-0.243-0.999c-0.162-0.286-0.38-0.51-0.653-0.672s-0.585-0.243-0.933-0.243c-0.348 0-0.663 0.081-0.943 0.243-0.274 0.162-0.492 0.386-0.653 0.672-0.156 0.286-0.233 0.619-0.233 0.999s0.078 0.716 0.233 1.008c0.162 0.286 0.38 0.51 0.653 0.672 0.28 0.156 0.594 0.233 0.943 0.233zM54.659 24.056c-0.485 0-0.952-0.078-1.4-0.233-0.442-0.162-0.784-0.367-1.027-0.616l0.271-0.532c0.23 0.224 0.538 0.414 0.924 0.569 0.392 0.149 0.803 0.224 1.232 0.224 0.411 0 0.744-0.050 0.999-0.149 0.261-0.106 0.451-0.246 0.569-0.42 0.124-0.174 0.187-0.367 0.187-0.579 0-0.255-0.075-0.46-0.224-0.616-0.143-0.156-0.333-0.277-0.569-0.364-0.236-0.093-0.498-0.174-0.784-0.243s-0.572-0.14-0.859-0.215c-0.286-0.081-0.551-0.187-0.793-0.317-0.236-0.131-0.429-0.302-0.579-0.513-0.143-0.218-0.215-0.501-0.215-0.849 0-0.324 0.084-0.619 0.252-0.887 0.174-0.274 0.439-0.492 0.793-0.653 0.355-0.168 0.809-0.252 1.363-0.252 0.367 0 0.731 0.053 1.092 0.159 0.361 0.1 0.672 0.24 0.933 0.42l-0.233 0.551c-0.28-0.187-0.579-0.324-0.896-0.411-0.311-0.087-0.613-0.131-0.905-0.131-0.392 0-0.716 0.053-0.971 0.159s-0.445 0.249-0.569 0.429c-0.118 0.174-0.177 0.373-0.177 0.597 0 0.255 0.072 0.46 0.215 0.616 0.149 0.156 0.342 0.277 0.579 0.364 0.243 0.087 0.507 0.165 0.793 0.233s0.569 0.143 0.849 0.224c0.286 0.081 0.548 0.187 0.784 0.317 0.243 0.124 0.436 0.292 0.579 0.504 0.149 0.212 0.224 0.488 0.224 0.831 0 0.317-0.087 0.613-0.261 0.887-0.174 0.268-0.442 0.485-0.803 0.653-0.355 0.162-0.812 0.243-1.372 0.243zM60.055 24.047c-0.46 0-0.815-0.124-1.064-0.373s-0.373-0.6-0.373-1.055v-4.601h0.663v4.564c0 0.286 0.072 0.507 0.215 0.663 0.149 0.156 0.361 0.233 0.635 0.233 0.292 0 0.535-0.084 0.728-0.252l0.233 0.476c-0.131 0.118-0.289 0.205-0.476 0.261-0.18 0.056-0.367 0.084-0.56 0.084zM57.741 19.651v-0.551h3.033v0.551h-3.033zM64.169 24.047c-0.473 0-0.899-0.106-1.279-0.317-0.373-0.218-0.669-0.513-0.887-0.887-0.218-0.38-0.327-0.812-0.327-1.297 0-0.492 0.109-0.924 0.327-1.297s0.513-0.666 0.887-0.877 0.8-0.317 1.279-0.317c0.485 0 0.915 0.106 1.288 0.317 0.38 0.212 0.675 0.504 0.887 0.877 0.218 0.373 0.327 0.806 0.327 1.297 0 0.485-0.109 0.918-0.327 1.297-0.212 0.373-0.507 0.669-0.887 0.887-0.38 0.212-0.809 0.317-1.288 0.317zM64.169 23.459c0.355 0 0.669-0.078 0.943-0.233 0.274-0.162 0.488-0.386 0.644-0.672 0.162-0.292 0.243-0.628 0.243-1.008 0-0.386-0.081-0.722-0.243-1.008-0.156-0.286-0.37-0.507-0.644-0.663-0.274-0.162-0.585-0.243-0.933-0.243s-0.66 0.081-0.933 0.243c-0.274 0.156-0.492 0.376-0.653 0.663s-0.243 0.622-0.243 1.008c0 0.38 0.081 0.716 0.243 1.008 0.162 0.286 0.38 0.51 0.653 0.672 0.274 0.156 0.582 0.233 0.924 0.233zM68.069 24v-4.9h0.635v1.335l-0.065-0.233c0.137-0.373 0.367-0.656 0.691-0.849 0.324-0.199 0.725-0.299 1.204-0.299v0.644c-0.025 0-0.049 0-0.075 0-0.025-0.006-0.049-0.009-0.075-0.009-0.516 0-0.921 0.159-1.213 0.476-0.292 0.311-0.439 0.756-0.439 1.335v2.501h-0.663zM73.825 24.047c-0.511 0-0.959-0.106-1.344-0.317-0.386-0.218-0.688-0.513-0.905-0.887-0.218-0.38-0.327-0.812-0.327-1.297s0.103-0.915 0.308-1.288c0.211-0.373 0.497-0.666 0.859-0.877 0.367-0.218 0.777-0.327 1.232-0.327 0.46 0 0.868 0.106 1.223 0.317 0.361 0.205 0.644 0.498 0.849 0.877 0.205 0.373 0.308 0.806 0.308 1.297 0 0.031-0.003 0.065-0.009 0.103 0 0.031 0 0.065 0 0.103h-4.265v-0.495h3.911l-0.261 0.196c0-0.355-0.078-0.669-0.233-0.943-0.149-0.28-0.355-0.498-0.616-0.653s-0.563-0.233-0.905-0.233c-0.336 0-0.638 0.078-0.905 0.233s-0.476 0.373-0.625 0.653-0.224 0.6-0.224 0.961v0.103c0 0.373 0.081 0.703 0.243 0.989 0.168 0.28 0.398 0.501 0.691 0.663 0.299 0.156 0.637 0.233 1.017 0.233 0.299 0 0.575-0.053 0.831-0.159 0.261-0.106 0.485-0.268 0.672-0.485l0.373 0.429c-0.218 0.261-0.492 0.46-0.821 0.597-0.324 0.137-0.681 0.205-1.073 0.205z"></path>
<path fill="#1b1b1b" style="fill: var(--color2, #1b1b1b)" d="M30.76 12.667v-4.667h1.9c0.498 0 0.933 0.1 1.307 0.3 0.378 0.196 0.671 0.469 0.88 0.82s0.313 0.756 0.313 1.213c0 0.458-0.104 0.862-0.313 1.213s-0.502 0.627-0.88 0.827c-0.373 0.196-0.809 0.293-1.307 0.293h-1.9zM31.253 12.24h1.38c0.413 0 0.771-0.080 1.073-0.24 0.307-0.164 0.544-0.389 0.713-0.673 0.169-0.289 0.253-0.62 0.253-0.993 0-0.378-0.084-0.709-0.253-0.993s-0.407-0.507-0.713-0.667c-0.302-0.164-0.66-0.247-1.073-0.247h-1.38v3.813zM37.594 12.7c-0.338 0-0.642-0.076-0.913-0.227-0.267-0.156-0.478-0.367-0.633-0.633-0.156-0.271-0.233-0.58-0.233-0.927 0-0.351 0.078-0.66 0.233-0.927s0.367-0.476 0.633-0.627 0.571-0.227 0.913-0.227c0.347 0 0.653 0.076 0.92 0.227 0.271 0.151 0.482 0.36 0.633 0.627 0.156 0.267 0.233 0.576 0.233 0.927 0 0.347-0.078 0.656-0.233 0.927-0.151 0.267-0.362 0.478-0.633 0.633-0.271 0.151-0.578 0.227-0.92 0.227zM37.594 12.28c0.253 0 0.478-0.056 0.673-0.167 0.196-0.116 0.349-0.276 0.46-0.48 0.116-0.209 0.173-0.449 0.173-0.72 0-0.276-0.058-0.516-0.173-0.72-0.111-0.204-0.264-0.362-0.46-0.473-0.196-0.116-0.418-0.173-0.667-0.173s-0.471 0.058-0.667 0.173c-0.196 0.111-0.351 0.269-0.467 0.473s-0.173 0.444-0.173 0.72c0 0.271 0.058 0.511 0.173 0.72 0.116 0.204 0.271 0.364 0.467 0.48 0.196 0.111 0.416 0.167 0.66 0.167zM40.963 12.667l-1.32-3.5h0.453l1.2 3.247h-0.207l1.233-3.247h0.407l1.22 3.247h-0.207l1.22-3.247h0.433l-1.327 3.5h-0.447l-1.173-3.053h0.14l-1.18 3.053h-0.447zM46.109 12.667v-4.947h0.473v4.947h-0.473zM49.326 12.7c-0.338 0-0.642-0.076-0.913-0.227-0.267-0.156-0.478-0.367-0.633-0.633-0.156-0.271-0.233-0.58-0.233-0.927 0-0.351 0.078-0.66 0.233-0.927s0.367-0.476 0.633-0.627 0.571-0.227 0.913-0.227c0.347 0 0.653 0.076 0.92 0.227 0.271 0.151 0.482 0.36 0.633 0.627 0.156 0.267 0.233 0.576 0.233 0.927 0 0.347-0.078 0.656-0.233 0.927-0.151 0.267-0.362 0.478-0.633 0.633-0.271 0.151-0.578 0.227-0.92 0.227zM49.326 12.28c0.253 0 0.478-0.056 0.673-0.167 0.196-0.116 0.349-0.276 0.46-0.48 0.116-0.209 0.173-0.449 0.173-0.72 0-0.276-0.058-0.516-0.173-0.72-0.111-0.204-0.264-0.362-0.46-0.473-0.196-0.116-0.418-0.173-0.667-0.173s-0.471 0.058-0.667 0.173c-0.196 0.111-0.351 0.269-0.467 0.473s-0.173 0.444-0.173 0.72c0 0.271 0.058 0.511 0.173 0.72 0.116 0.204 0.271 0.364 0.467 0.48 0.196 0.111 0.416 0.167 0.66 0.167zM54.253 12.667v-0.773l-0.020-0.127v-1.293c0-0.298-0.084-0.527-0.253-0.687-0.164-0.16-0.411-0.24-0.74-0.24-0.227 0-0.442 0.038-0.647 0.113s-0.378 0.176-0.52 0.3l-0.213-0.353c0.178-0.151 0.391-0.267 0.64-0.347 0.249-0.084 0.511-0.127 0.787-0.127 0.453 0 0.802 0.113 1.047 0.34 0.249 0.222 0.373 0.562 0.373 1.020v2.173h-0.453zM53.046 12.7c-0.262 0-0.491-0.042-0.687-0.127-0.191-0.089-0.338-0.209-0.44-0.36-0.102-0.156-0.153-0.333-0.153-0.533 0-0.182 0.042-0.347 0.127-0.493 0.089-0.151 0.231-0.271 0.427-0.36 0.2-0.093 0.467-0.14 0.8-0.14h1.207v0.353h-1.193c-0.338 0-0.573 0.060-0.707 0.18-0.129 0.12-0.193 0.269-0.193 0.447 0 0.2 0.078 0.36 0.233 0.48s0.373 0.18 0.653 0.18c0.267 0 0.496-0.060 0.687-0.18 0.196-0.124 0.338-0.302 0.427-0.533l0.107 0.327c-0.089 0.231-0.244 0.416-0.467 0.553-0.218 0.138-0.493 0.207-0.827 0.207zM57.385 12.7c-0.333 0-0.633-0.076-0.9-0.227-0.262-0.151-0.469-0.36-0.62-0.627-0.151-0.271-0.227-0.582-0.227-0.933 0-0.356 0.076-0.667 0.227-0.933s0.358-0.473 0.62-0.62c0.267-0.151 0.567-0.227 0.9-0.227 0.307 0 0.58 0.069 0.82 0.207 0.244 0.138 0.438 0.34 0.58 0.607 0.147 0.262 0.22 0.584 0.22 0.967 0 0.378-0.071 0.7-0.213 0.967s-0.336 0.471-0.58 0.613c-0.24 0.138-0.516 0.207-0.827 0.207zM57.419 12.28c0.249 0 0.471-0.056 0.667-0.167 0.2-0.116 0.356-0.276 0.467-0.48 0.116-0.209 0.173-0.449 0.173-0.72 0-0.276-0.058-0.516-0.173-0.72-0.111-0.204-0.267-0.362-0.467-0.473-0.196-0.116-0.418-0.173-0.667-0.173-0.244 0-0.464 0.058-0.66 0.173-0.196 0.111-0.351 0.269-0.467 0.473s-0.173 0.444-0.173 0.72c0 0.271 0.058 0.511 0.173 0.72 0.116 0.204 0.271 0.364 0.467 0.48 0.196 0.111 0.416 0.167 0.66 0.167zM58.739 12.667v-1.053l0.047-0.707-0.067-0.707v-2.48h0.473v4.947h-0.453zM63.682 12.7c-0.338 0-0.642-0.076-0.913-0.227-0.267-0.156-0.478-0.367-0.633-0.633-0.156-0.271-0.233-0.58-0.233-0.927 0-0.351 0.078-0.66 0.233-0.927s0.367-0.476 0.633-0.627 0.571-0.227 0.913-0.227c0.347 0 0.653 0.076 0.92 0.227 0.271 0.151 0.482 0.36 0.633 0.627 0.156 0.267 0.233 0.576 0.233 0.927 0 0.347-0.078 0.656-0.233 0.927-0.151 0.267-0.362 0.478-0.633 0.633-0.271 0.151-0.578 0.227-0.92 0.227zM63.682 12.28c0.253 0 0.478-0.056 0.673-0.167 0.196-0.116 0.349-0.276 0.46-0.48 0.116-0.209 0.173-0.449 0.173-0.72 0-0.276-0.058-0.516-0.173-0.72-0.111-0.204-0.264-0.362-0.46-0.473-0.196-0.116-0.418-0.173-0.667-0.173s-0.471 0.058-0.667 0.173c-0.196 0.111-0.351 0.269-0.467 0.473s-0.173 0.444-0.173 0.72c0 0.271 0.058 0.511 0.173 0.72 0.116 0.204 0.271 0.364 0.467 0.48 0.196 0.111 0.416 0.167 0.66 0.167zM68.221 9.133c0.285 0 0.533 0.056 0.747 0.167 0.218 0.107 0.387 0.271 0.507 0.493 0.125 0.222 0.187 0.502 0.187 0.84v2.033h-0.473v-1.987c0-0.369-0.093-0.647-0.28-0.833-0.182-0.191-0.44-0.287-0.773-0.287-0.249 0-0.467 0.051-0.653 0.153-0.182 0.098-0.325 0.242-0.427 0.433-0.098 0.187-0.147 0.413-0.147 0.68v1.84h-0.473v-3.5h0.453v0.96l-0.073-0.18c0.111-0.253 0.289-0.451 0.533-0.593 0.245-0.147 0.535-0.22 0.873-0.22zM73.791 12.7c-0.329 0-0.582-0.089-0.76-0.267s-0.267-0.429-0.267-0.753v-3.287h0.473v3.26c0 0.204 0.051 0.362 0.153 0.473 0.107 0.111 0.258 0.167 0.453 0.167 0.209 0 0.382-0.060 0.52-0.18l0.167 0.34c-0.093 0.084-0.207 0.147-0.34 0.187-0.129 0.040-0.262 0.060-0.4 0.060zM72.138 9.56v-0.393h2.167v0.393h-2.167zM77.18 9.133c0.284 0 0.533 0.056 0.747 0.167 0.217 0.107 0.387 0.271 0.507 0.493 0.124 0.222 0.187 0.502 0.187 0.84v2.033h-0.473v-1.987c0-0.369-0.093-0.647-0.28-0.833-0.183-0.191-0.44-0.287-0.773-0.287-0.249 0-0.467 0.051-0.653 0.153-0.183 0.098-0.325 0.242-0.427 0.433-0.098 0.187-0.147 0.413-0.147 0.68v1.84h-0.473v-4.947h0.473v2.407l-0.093-0.18c0.111-0.253 0.289-0.451 0.533-0.593 0.244-0.147 0.535-0.22 0.873-0.22zM81.385 12.7c-0.364 0-0.684-0.076-0.96-0.227-0.275-0.156-0.491-0.367-0.647-0.633-0.155-0.271-0.233-0.58-0.233-0.927s0.073-0.653 0.22-0.92c0.151-0.267 0.356-0.476 0.613-0.627 0.263-0.156 0.556-0.233 0.88-0.233 0.329 0 0.62 0.076 0.873 0.227 0.258 0.147 0.46 0.356 0.607 0.627 0.147 0.267 0.22 0.576 0.22 0.927 0 0.022-0.002 0.047-0.007 0.073 0 0.022 0 0.047 0 0.073h-3.047v-0.353h2.793l-0.187 0.14c0-0.253-0.055-0.478-0.167-0.673-0.107-0.2-0.253-0.356-0.44-0.467s-0.402-0.167-0.647-0.167c-0.24 0-0.455 0.056-0.647 0.167s-0.34 0.267-0.447 0.467-0.16 0.429-0.16 0.687v0.073c0 0.267 0.058 0.502 0.173 0.707 0.12 0.2 0.285 0.358 0.493 0.473 0.213 0.111 0.456 0.167 0.727 0.167 0.213 0 0.411-0.038 0.593-0.113 0.187-0.076 0.347-0.191 0.48-0.347l0.267 0.307c-0.155 0.187-0.351 0.329-0.587 0.427-0.231 0.098-0.487 0.147-0.767 0.147z"></path>
</symbol>
<symbol id="icon-Group-google-play" viewBox="0 0 91 32">
<path fill="#fff" style="fill: var(--color1, #fff)" d="M5.333 0h77.409c2.946 0 5.333 2.388 5.333 5.333v21.333c0 2.946-2.388 5.333-5.333 5.333h-77.409c-2.946 0-5.333-2.388-5.333-5.333v-21.333c0-2.946 2.388-5.333 5.333-5.333z"></path>
<path fill="#1b1b1b" style="fill: var(--color2, #1b1b1b)" d="M31.777 24.056c-0.498 0-0.958-0.081-1.381-0.243-0.417-0.168-0.781-0.401-1.092-0.7-0.305-0.299-0.544-0.65-0.719-1.055-0.168-0.404-0.252-0.846-0.252-1.325s0.084-0.921 0.252-1.325c0.174-0.404 0.417-0.756 0.728-1.055s0.675-0.529 1.092-0.691c0.423-0.168 0.884-0.252 1.381-0.252s0.952 0.078 1.363 0.233c0.417 0.156 0.772 0.392 1.064 0.709l-0.429 0.439c-0.274-0.274-0.576-0.47-0.905-0.588s-0.684-0.177-1.064-0.177c-0.404 0-0.778 0.068-1.12 0.205-0.336 0.131-0.632 0.32-0.887 0.569-0.249 0.243-0.445 0.529-0.588 0.859-0.137 0.324-0.205 0.681-0.205 1.073 0 0.386 0.068 0.744 0.205 1.073 0.143 0.33 0.339 0.619 0.588 0.868 0.255 0.243 0.551 0.432 0.887 0.569 0.342 0.131 0.712 0.196 1.111 0.196 0.373 0 0.725-0.056 1.055-0.168 0.336-0.112 0.644-0.302 0.924-0.569l0.392 0.523c-0.311 0.274-0.675 0.482-1.092 0.625-0.417 0.137-0.852 0.205-1.307 0.205zM33.513 23.141v-2.408h0.663v2.492l-0.663-0.084zM38.034 24.047c-0.473 0-0.899-0.106-1.279-0.317-0.373-0.218-0.669-0.513-0.887-0.887-0.218-0.38-0.327-0.812-0.327-1.297 0-0.492 0.109-0.924 0.327-1.297s0.513-0.666 0.887-0.877c0.373-0.212 0.8-0.317 1.279-0.317 0.485 0 0.915 0.106 1.288 0.317 0.38 0.212 0.675 0.504 0.887 0.877 0.218 0.373 0.327 0.806 0.327 1.297 0 0.485-0.109 0.918-0.327 1.297-0.212 0.373-0.507 0.669-0.887 0.887-0.38 0.212-0.809 0.317-1.288 0.317zM38.034 23.459c0.355 0 0.669-0.078 0.943-0.233 0.274-0.162 0.488-0.386 0.644-0.672 0.162-0.292 0.243-0.628 0.243-1.008 0-0.386-0.081-0.722-0.243-1.008-0.156-0.286-0.37-0.507-0.644-0.663-0.274-0.162-0.585-0.243-0.933-0.243s-0.66 0.081-0.933 0.243c-0.274 0.156-0.492 0.376-0.653 0.663s-0.243 0.622-0.243 1.008c0 0.38 0.081 0.716 0.243 1.008 0.162 0.286 0.38 0.51 0.653 0.672 0.274 0.156 0.582 0.233 0.924 0.233zM43.933 24.047c-0.473 0-0.899-0.106-1.279-0.317-0.373-0.218-0.669-0.513-0.887-0.887-0.218-0.38-0.327-0.812-0.327-1.297 0-0.492 0.109-0.924 0.327-1.297s0.513-0.666 0.887-0.877 0.8-0.317 1.279-0.317c0.485 0 0.915 0.106 1.288 0.317 0.38 0.212 0.675 0.504 0.887 0.877 0.218 0.373 0.327 0.806 0.327 1.297 0 0.485-0.109 0.918-0.327 1.297-0.212 0.373-0.507 0.669-0.887 0.887-0.38 0.212-0.809 0.317-1.288 0.317zM43.933 23.459c0.355 0 0.669-0.078 0.943-0.233 0.274-0.162 0.488-0.386 0.644-0.672 0.162-0.292 0.243-0.628 0.243-1.008 0-0.386-0.081-0.722-0.243-1.008-0.156-0.286-0.37-0.507-0.644-0.663-0.274-0.162-0.585-0.243-0.933-0.243s-0.66 0.081-0.933 0.243c-0.274 0.156-0.492 0.376-0.653 0.663s-0.243 0.622-0.243 1.008c0 0.38 0.081 0.716 0.243 1.008 0.162 0.286 0.38 0.51 0.653 0.672 0.274 0.156 0.582 0.233 0.924 0.233zM49.924 25.857c-0.448 0-0.877-0.065-1.288-0.196s-0.744-0.317-0.999-0.56l0.336-0.504c0.23 0.205 0.513 0.367 0.849 0.485 0.342 0.124 0.703 0.187 1.083 0.187 0.622 0 1.080-0.146 1.372-0.439 0.292-0.286 0.439-0.734 0.439-1.344v-1.223l0.093-0.84-0.065-0.84v-1.484h0.635v4.303c0 0.846-0.208 1.465-0.625 1.857-0.411 0.398-1.020 0.597-1.829 0.597zM49.803 23.813c-0.467 0-0.887-0.1-1.26-0.299-0.373-0.205-0.669-0.488-0.887-0.849-0.212-0.361-0.317-0.775-0.317-1.241s0.106-0.877 0.317-1.232c0.218-0.361 0.513-0.641 0.887-0.84s0.793-0.299 1.26-0.299c0.436 0 0.828 0.090 1.176 0.271s0.625 0.448 0.831 0.803c0.205 0.355 0.308 0.787 0.308 1.297s-0.103 0.943-0.308 1.297c-0.205 0.355-0.482 0.625-0.831 0.812s-0.74 0.28-1.176 0.28zM49.868 23.225c0.361 0 0.681-0.075 0.961-0.224 0.28-0.156 0.501-0.367 0.663-0.635 0.162-0.274 0.243-0.588 0.243-0.943s-0.081-0.666-0.243-0.933c-0.162-0.268-0.383-0.476-0.663-0.625-0.28-0.156-0.6-0.233-0.961-0.233-0.355 0-0.675 0.078-0.961 0.233-0.28 0.149-0.501 0.358-0.663 0.625-0.156 0.268-0.233 0.579-0.233 0.933s0.078 0.669 0.233 0.943c0.162 0.268 0.383 0.479 0.663 0.635 0.286 0.149 0.607 0.224 0.961 0.224zM54.27 24v-6.925h0.663v6.925h-0.663zM58.904 24.047c-0.51 0-0.958-0.106-1.344-0.317-0.386-0.218-0.688-0.513-0.905-0.887-0.218-0.38-0.327-0.812-0.327-1.297s0.103-0.915 0.308-1.288c0.212-0.373 0.498-0.666 0.859-0.877 0.367-0.218 0.778-0.327 1.232-0.327 0.46 0 0.868 0.106 1.223 0.317 0.361 0.205 0.644 0.498 0.849 0.877 0.205 0.373 0.308 0.806 0.308 1.297 0 0.031-0.003 0.065-0.009 0.103 0 0.031 0 0.065 0 0.103h-4.265v-0.495h3.911l-0.261 0.196c0-0.355-0.078-0.669-0.233-0.943-0.149-0.28-0.355-0.498-0.616-0.653s-0.563-0.233-0.905-0.233c-0.336 0-0.638 0.078-0.905 0.233s-0.476 0.373-0.625 0.653-0.224 0.6-0.224 0.961v0.103c0 0.373 0.081 0.703 0.243 0.989 0.168 0.28 0.398 0.501 0.691 0.663 0.299 0.156 0.638 0.233 1.017 0.233 0.299 0 0.576-0.053 0.831-0.159 0.261-0.106 0.485-0.268 0.672-0.485l0.373 0.429c-0.218 0.261-0.492 0.46-0.821 0.597-0.324 0.137-0.681 0.205-1.073 0.205zM65.132 24v-6.533h2.445c0.554 0 1.030 0.090 1.428 0.271 0.399 0.174 0.703 0.429 0.915 0.765 0.218 0.33 0.327 0.731 0.327 1.204 0 0.46-0.109 0.859-0.327 1.195-0.211 0.33-0.516 0.585-0.915 0.765s-0.874 0.271-1.428 0.271h-2.062l0.308-0.327v2.389h-0.691zM65.822 21.667l-0.308-0.336h2.044c0.653 0 1.148-0.14 1.484-0.42 0.343-0.286 0.513-0.688 0.513-1.204 0-0.523-0.171-0.927-0.513-1.213-0.336-0.286-0.831-0.429-1.484-0.429h-2.044l0.308-0.327v3.929zM71.737 24v-6.925h0.663v6.925h-0.663zM77.361 24v-1.083l-0.028-0.177v-1.811c0-0.417-0.118-0.737-0.355-0.961-0.23-0.224-0.575-0.336-1.036-0.336-0.317 0-0.619 0.053-0.905 0.159s-0.529 0.246-0.728 0.42l-0.299-0.495c0.249-0.212 0.547-0.373 0.896-0.485 0.349-0.118 0.715-0.177 1.101-0.177 0.635 0 1.123 0.159 1.465 0.476 0.349 0.311 0.523 0.787 0.523 1.428v3.043h-0.635zM75.672 24.047c-0.367 0-0.687-0.059-0.961-0.177-0.267-0.124-0.473-0.292-0.616-0.504-0.143-0.218-0.215-0.467-0.215-0.747 0-0.255 0.059-0.485 0.177-0.691 0.125-0.212 0.323-0.38 0.597-0.504 0.28-0.131 0.653-0.196 1.12-0.196h1.689v0.495h-1.671c-0.473 0-0.803 0.084-0.989 0.252-0.181 0.168-0.271 0.376-0.271 0.625 0 0.28 0.109 0.504 0.327 0.672s0.523 0.252 0.915 0.252c0.373 0 0.694-0.084 0.961-0.252 0.274-0.174 0.473-0.423 0.597-0.747l0.149 0.457c-0.125 0.324-0.342 0.582-0.653 0.775-0.305 0.193-0.691 0.289-1.157 0.289zM79.789 25.857c-0.23 0-0.451-0.037-0.663-0.112-0.205-0.075-0.383-0.187-0.532-0.336l0.308-0.495c0.125 0.118 0.258 0.208 0.401 0.271 0.149 0.068 0.314 0.103 0.495 0.103 0.218 0 0.405-0.062 0.56-0.187 0.162-0.118 0.314-0.33 0.457-0.635l0.317-0.719 0.075-0.103 2.016-4.545h0.653l-2.455 5.488c-0.137 0.317-0.289 0.569-0.457 0.756-0.162 0.187-0.339 0.317-0.532 0.392-0.193 0.081-0.407 0.121-0.644 0.121zM81.095 24.14l-2.259-5.040h0.691l1.997 4.499-0.429 0.541z"></path>
<path fill="#1b1b1b" style="fill: var(--color2, #1b1b1b)" d="M30.654 12.707c-0.356 0-0.684-0.058-0.987-0.173-0.298-0.12-0.558-0.287-0.78-0.5-0.218-0.213-0.389-0.464-0.513-0.753-0.12-0.289-0.18-0.604-0.18-0.947s0.060-0.658 0.18-0.947c0.124-0.289 0.298-0.54 0.52-0.753s0.482-0.378 0.78-0.493c0.302-0.12 0.631-0.18 0.987-0.18s0.68 0.056 0.973 0.167c0.298 0.111 0.551 0.28 0.76 0.507l-0.307 0.313c-0.196-0.196-0.411-0.336-0.647-0.42s-0.489-0.127-0.76-0.127c-0.289 0-0.556 0.049-0.8 0.147-0.24 0.093-0.451 0.229-0.633 0.407-0.178 0.173-0.318 0.378-0.42 0.613-0.098 0.231-0.147 0.487-0.147 0.767 0 0.276 0.049 0.531 0.147 0.767 0.102 0.236 0.242 0.442 0.42 0.62 0.182 0.173 0.393 0.309 0.633 0.407 0.244 0.093 0.509 0.14 0.793 0.14 0.267 0 0.518-0.040 0.753-0.12 0.24-0.080 0.46-0.216 0.66-0.407l0.28 0.373c-0.222 0.196-0.482 0.344-0.78 0.447-0.298 0.098-0.609 0.147-0.933 0.147zM31.894 12.053v-1.72h0.473v1.78l-0.473-0.060zM35.151 12.7c-0.364 0-0.684-0.076-0.96-0.227-0.276-0.156-0.491-0.367-0.647-0.633-0.156-0.271-0.233-0.58-0.233-0.927s0.073-0.653 0.22-0.92c0.151-0.267 0.356-0.476 0.613-0.627 0.262-0.156 0.556-0.233 0.88-0.233 0.329 0 0.62 0.076 0.873 0.227 0.258 0.147 0.46 0.356 0.607 0.627 0.147 0.267 0.22 0.576 0.22 0.927 0 0.022-0.002 0.047-0.007 0.073 0 0.022 0 0.047 0 0.073h-3.047v-0.353h2.793l-0.187 0.14c0-0.253-0.056-0.478-0.167-0.673-0.107-0.2-0.253-0.356-0.44-0.467s-0.402-0.167-0.647-0.167c-0.24 0-0.456 0.056-0.647 0.167s-0.34 0.267-0.447 0.467-0.16 0.429-0.16 0.687v0.073c0 0.267 0.058 0.502 0.173 0.707 0.12 0.2 0.284 0.358 0.493 0.473 0.213 0.111 0.456 0.167 0.727 0.167 0.213 0 0.411-0.038 0.593-0.113 0.187-0.076 0.347-0.191 0.48-0.347l0.267 0.307c-0.156 0.187-0.351 0.329-0.587 0.427-0.231 0.098-0.487 0.147-0.767 0.147zM38.794 12.7c-0.329 0-0.582-0.089-0.76-0.267s-0.267-0.429-0.267-0.753v-3.287h0.473v3.26c0 0.204 0.051 0.362 0.153 0.473 0.107 0.111 0.258 0.167 0.453 0.167 0.209 0 0.382-0.060 0.52-0.18l0.167 0.34c-0.093 0.084-0.207 0.147-0.34 0.187-0.129 0.040-0.262 0.060-0.4 0.060zM37.141 9.56v-0.393h2.167v0.393h-2.167zM42.14 12.667v-3.5h0.473v3.5h-0.473zM42.38 8.393c-0.098 0-0.18-0.033-0.247-0.1s-0.1-0.147-0.1-0.24c0-0.093 0.033-0.171 0.1-0.233 0.067-0.067 0.149-0.1 0.247-0.1s0.18 0.031 0.247 0.093c0.067 0.062 0.1 0.14 0.1 0.233 0 0.098-0.033 0.18-0.1 0.247-0.062 0.067-0.144 0.1-0.247 0.1zM45.038 12.7c-0.329 0-0.582-0.089-0.76-0.267s-0.267-0.429-0.267-0.753v-3.287h0.473v3.26c0 0.204 0.051 0.362 0.153 0.473 0.107 0.111 0.258 0.167 0.453 0.167 0.209 0 0.382-0.060 0.52-0.18l0.167 0.34c-0.093 0.084-0.207 0.147-0.34 0.187-0.129 0.040-0.262 0.060-0.4 0.060zM43.384 9.56v-0.393h2.167v0.393h-2.167zM49.811 12.7c-0.338 0-0.642-0.076-0.913-0.227-0.267-0.156-0.478-0.367-0.633-0.633-0.156-0.271-0.233-0.58-0.233-0.927 0-0.351 0.078-0.66 0.233-0.927s0.367-0.476 0.633-0.627 0.571-0.227 0.913-0.227c0.347 0 0.653 0.076 0.92 0.227 0.271 0.151 0.482 0.36 0.633 0.627 0.156 0.267 0.233 0.576 0.233 0.927 0 0.347-0.078 0.656-0.233 0.927-0.151 0.267-0.362 0.478-0.633 0.633-0.271 0.151-0.578 0.227-0.92 0.227zM49.811 12.28c0.253 0 0.478-0.056 0.673-0.167 0.196-0.116 0.349-0.276 0.46-0.48 0.116-0.209 0.173-0.449 0.173-0.72 0-0.276-0.058-0.516-0.173-0.72-0.111-0.204-0.264-0.362-0.46-0.473-0.196-0.116-0.418-0.173-0.667-0.173s-0.471 0.058-0.667 0.173c-0.196 0.111-0.351 0.269-0.467 0.473s-0.173 0.444-0.173 0.72c0 0.271 0.058 0.511 0.173 0.72 0.116 0.204 0.271 0.364 0.467 0.48 0.196 0.111 0.416 0.167 0.66 0.167zM54.35 9.133c0.284 0 0.533 0.056 0.747 0.167 0.218 0.107 0.387 0.271 0.507 0.493 0.124 0.222 0.187 0.502 0.187 0.84v2.033h-0.473v-1.987c0-0.369-0.093-0.647-0.28-0.833-0.182-0.191-0.44-0.287-0.773-0.287-0.249 0-0.467 0.051-0.653 0.153-0.182 0.098-0.324 0.242-0.427 0.433-0.098 0.187-0.147 0.413-0.147 0.68v1.84h-0.473v-3.5h0.453v0.96l-0.073-0.18c0.111-0.253 0.289-0.451 0.533-0.593 0.244-0.147 0.536-0.22 0.873-0.22z"></path>
<path fill="#1b1b1b" style="fill: var(--color2, #1b1b1b)" d="M18.063 15.293l2.793-2.875-9.020-5.219c-0.598-0.332-1.158-0.379-1.649-0.016l7.877 8.109zM21.332 18.659l2.903-1.681c0.567-0.327 0.877-0.789 0.877-1.303s-0.311-0.976-0.876-1.303l-2.628-1.52-2.959 3.045 2.683 2.761zM9.701 7.891c-0.060 0.192-0.094 0.405-0.094 0.64v14.297c0 0.37 0.079 0.689 0.223 0.943l7.647-7.873-7.776-8.006zM18.063 16.5l-7.605 7.829c0.145 0.057 0.302 0.088 0.468 0.088 0.295 0 0.602-0.089 0.914-0.268l8.741-5.053-2.518-2.596z"></path>
</symbol>
<symbol id="icon-icon-facebook" viewBox="0 0 32 32">
<path fill="#fdd58c" style="fill: var(--color3, #fdd58c)" d="M2.827 0.105c-1.358 0.394-2.384 1.44-2.735 2.804-0.094 0.35-0.1 1.627-0.088 13.237l0.019 12.849 0.163 0.451c0.419 1.133 1.283 1.997 2.434 2.41l0.407 0.144h13.735l0.232-0.238 0.238-0.232 0.019-6.121 0.013-6.127-0.144-0.213c-0.275-0.413-0.363-0.432-2.372-0.432h-1.802v-2.629h1.802c1.996 0 2.084-0.019 2.372-0.432 0.125-0.188 0.131-0.263 0.163-2.56 0.025-2.591 0.044-2.71 0.438-3.517 0.275-0.563 1.051-1.339 1.627-1.615 0.757-0.363 0.939-0.388 3.029-0.388h1.896v2.629h-1.809c-1.771 0-1.808 0-2.015 0.144-0.113 0.075-0.275 0.238-0.35 0.351-0.144 0.213-0.144 0.225-0.144 2.479 0 3.123-0.181 2.91 2.515 2.91h1.802v2.629h-1.796c-2.015 0-2.103 0.019-2.378 0.432l-0.144 0.213v12.192l0.244 0.263 0.25 0.263h8.548l0.451-0.163c1.133-0.419 1.996-1.283 2.409-2.435l0.144-0.407v-25.974l-0.163-0.451c-0.419-1.133-1.283-1.997-2.434-2.41l-0.407-0.144-12.891-0.013c-12.152-0.013-12.916-0.006-13.279 0.1zM28.821 2.058c0.488 0.182 0.957 0.651 1.139 1.139l0.131 0.363v24.898l-0.131 0.363c-0.181 0.488-0.651 0.958-1.139 1.139-0.35 0.125-0.444 0.131-3.642 0.131h-3.285v-9.507l1.871-0.019c2.666-0.025 2.447 0.263 2.447-3.242 0-2.829 0-2.823-0.432-3.111-0.206-0.144-0.244-0.144-2.046-0.144h-1.84v-2.003h1.765c1.633 0 1.783-0.006 2.021-0.125 0.163-0.081 0.307-0.213 0.394-0.369 0.138-0.238 0.138-0.288 0.138-2.804 0-2.56 0-2.566-0.138-2.773-0.081-0.113-0.225-0.269-0.319-0.338-0.169-0.125-0.263-0.131-2.378-0.15-2.528-0.025-3.298 0.031-4.136 0.3-1.877 0.607-3.317 2.191-3.767 4.162-0.075 0.325-0.106 0.908-0.131 2.266l-0.031 1.834h-1.833c-2.672 0-2.472-0.263-2.472 3.255 0 2.791 0 2.804 0.394 3.092 0.169 0.125 0.269 0.131 2.052 0.15l1.871 0.019v9.507h-5.882c-5.851 0-5.882 0-6.239-0.131-0.488-0.181-0.957-0.651-1.139-1.139l-0.131-0.363v-24.898l0.138-0.363c0.181-0.488 0.594-0.914 1.083-1.114l0.375-0.156h24.93l0.363 0.131z"></path>
</symbol>
<symbol id="icon-icon-instagram" viewBox="0 0 32 32">
<path fill="#fdd58c" style="fill: var(--color3, #fdd58c)" d="M7.515 0.015c-0.069 0.019-0.351 0.075-0.626 0.125-2.943 0.557-5.486 2.798-6.469 5.691-0.445 1.308-0.42 0.682-0.42 10.173 0 8.013 0.006 8.577 0.113 9.078 0.739 3.462 3.344 6.066 6.807 6.805 0.501 0.106 1.065 0.113 9.080 0.113s8.579-0.006 9.080-0.113c3.463-0.739 6.068-3.343 6.807-6.805 0.106-0.501 0.113-1.064 0.113-9.078s-0.006-8.577-0.113-9.078c-0.651-3.061-2.805-5.516-5.711-6.498-1.309-0.445-0.576-0.413-10.019-0.426-4.684-0.006-8.573 0-8.642 0.013zM24.986 2.087c1.772 0.532 3.144 1.515 4.008 2.867 0.67 1.046 0.989 1.997 1.096 3.268 0.081 0.977 0.081 14.587 0 15.564-0.094 1.121-0.282 1.772-0.801 2.755-0.877 1.672-2.474 2.905-4.377 3.387-0.758 0.194-1.885 0.225-8.911 0.225s-8.153-0.031-8.911-0.225c-2.505-0.632-4.315-2.442-5.035-5.033-0.106-0.382-0.113-0.901-0.113-8.89s0.006-8.508 0.113-8.89c0.651-2.329 2.173-4.032 4.315-4.821 0.357-0.125 0.971-0.288 1.271-0.332 0.106-0.013 3.951-0.025 8.548-0.019 8.31 0.013 8.36 0.013 8.798 0.144z"></path>
<path fill="#fdd58c" style="fill: var(--color3, #fdd58c)" d="M24.179 4.235c-1.096 0.351-1.797 1.308-1.797 2.46-0.006 1.509 1.108 2.623 2.617 2.617 1.165 0 2.117-0.707 2.467-1.816 0.626-2.022-1.271-3.907-3.288-3.262zM25.431 6.263c0.244 0.244 0.282 0.532 0.107 0.789-0.169 0.244-0.282 0.307-0.564 0.313-0.207 0-0.301-0.038-0.451-0.194-0.426-0.426-0.125-1.121 0.482-1.121 0.157 0 0.269 0.056 0.426 0.213z"></path>
<path fill="#fdd58c" style="fill: var(--color3, #fdd58c)" d="M14.56 7.327c-3.651 0.657-6.412 3.318-7.183 6.924-0.163 0.758-0.163 2.748 0 3.506 0.745 3.481 3.388 6.123 6.87 6.868 0.758 0.163 2.749 0.163 3.507 0 3.482-0.745 6.124-3.387 6.87-6.868 0.088-0.413 0.113-0.814 0.113-1.753 0-1.346-0.069-1.822-0.42-2.848-0.989-2.905-3.451-5.090-6.5-5.76-0.639-0.144-2.611-0.182-3.256-0.069zM17.234 9.274c2.787 0.526 4.972 2.711 5.498 5.497 0.119 0.639 0.119 1.828 0 2.467-0.526 2.786-2.711 4.971-5.498 5.497-0.639 0.119-1.829 0.119-2.467 0-2.787-0.526-4.972-2.711-5.498-5.497-0.119-0.639-0.119-1.828 0-2.467 0.526-2.767 2.693-4.946 5.454-5.49 0.595-0.119 1.897-0.119 2.511-0.006z"></path>
</symbol>
<symbol id="icon-icon-location" viewBox="0 0 28 32">
<path fill="#fdd58c" style="fill: var(--color3, #fdd58c)" d="M11.888 0.11c-4.016 0.607-7.437 2.76-9.703 6.103-0.826 1.221-1.582 3.029-1.898 4.538-0.865 4.162 0.213 8.018 3.441 12.268 1.491 1.965 3.712 4.193 7.076 7.098 2.15 1.859 2.201 1.884 3.196 1.884s1.046-0.025 3.196-1.884c3.363-2.904 5.584-5.132 7.076-7.098 2.389-3.148 3.589-6.059 3.719-9.013 0.129-3.142-0.872-6.19-2.905-8.794-0.542-0.689-1.885-1.978-2.628-2.51-1.788-1.296-3.796-2.147-5.972-2.535-1.059-0.194-3.512-0.225-4.597-0.056zM15.703 2.025c2.647 0.401 4.913 1.508 6.779 3.317 1.801 1.746 2.957 3.937 3.364 6.359 0.51 3.061-0.271 5.915-2.492 9.157-1.633 2.379-3.506 4.331-7.36 7.667-1.491 1.296-1.84 1.565-1.995 1.565s-0.504-0.269-1.995-1.565c-3.854-3.336-5.726-5.289-7.36-7.667-2.221-3.242-3.002-6.096-2.492-9.157 0.697-4.169 3.706-7.674 7.812-9.107 0.788-0.275 1.278-0.401 2.163-0.545 0.897-0.15 2.673-0.163 3.577-0.025z"></path>
<path fill="#fdd58c" style="fill: var(--color3, #fdd58c)" d="M13.412 7.070c-1.149 0.081-2.311 0.532-3.267 1.264-2.86 2.197-3.131 6.378-0.568 8.882 0.788 0.77 1.782 1.339 2.841 1.621 0.749 0.2 2.414 0.2 3.163 0 2.053-0.551 3.686-2.059 4.313-3.993 0.768-2.353-0.039-4.963-1.988-6.472-1.336-1.020-2.75-1.433-4.493-1.302zM15 9.098c1.905 0.438 3.305 2.272 3.17 4.156-0.071 1.077-0.439 1.834-1.259 2.629-0.394 0.376-0.678 0.588-0.975 0.732-0.813 0.382-0.994 0.419-1.937 0.419s-1.123-0.038-1.937-0.419c-0.581-0.275-1.44-1.108-1.756-1.702-0.626-1.183-0.659-2.422-0.084-3.586 0.872-1.778 2.808-2.685 4.777-2.228z"></path>
</symbol>
<symbol id="icon-icon-paypal" viewBox="0 0 109 32">
<path fill="#fff" style="fill: var(--color1, #fff)" d="M103.059 0.457c0 0.251-0.086 0.457-0.214 0.457-0.107 0-0.214 0.16-0.214 0.343s0.107 0.343 0.214 0.343c0.128 0 0.214 0.457 0.214 1.006 0 1.165 0.406 1.737 1.197 1.737 0.663 0 0.684-0.617 0.043-0.731-0.406-0.046-0.513-0.229-0.556-1.051-0.064-0.891-0.021-0.96 0.47-0.96 0.342 0 0.556-0.137 0.556-0.343s-0.192-0.343-0.535-0.343c-0.385 0-0.534-0.114-0.534-0.457 0-0.251-0.15-0.457-0.321-0.457s-0.321 0.206-0.321 0.457z"></path>
<path fill="#fff" style="fill: var(--color1, #fff)" d="M105.197 2.651c0 1.325 0.064 1.691 0.321 1.691 0.214 0 0.321-0.343 0.363-1.325 0.064-1.143 0.128-1.303 0.556-1.371 0.449-0.069 0.47 0 0.47 1.303 0 1.234 0.043 1.394 0.428 1.394 0.342 0 0.406-0.183 0.47-1.325 0.064-1.12 0.128-1.303 0.492-1.303s0.428 0.183 0.492 1.303c0.043 0.983 0.15 1.325 0.364 1.325 0.257 0 0.321-0.343 0.321-1.577 0-1.874 0.064-1.828-2.502-1.805h-1.775v1.691z"></path>
<path fill="#fff" style="fill: var(--color1, #fff)" d="M4.554 2.583c-0.278 0.389-1.048 3.542-2.48 10.261-1.155 5.302-2.074 9.918-2.074 10.238 0 0.96 0.363 1.143 2.331 1.143 2.758 0 2.78-0.023 3.592-3.519 0.364-1.623 0.813-3.108 1.005-3.291 0.257-0.274 1.026-0.411 3.079-0.526 3.186-0.183 5.174-0.8 7.077-2.194 2.609-1.92 3.742-5.188 2.972-8.479-0.342-1.44-1.796-2.994-3.378-3.588-1.005-0.366-1.967-0.434-6.436-0.526l-5.26-0.091-0.428 0.571zM12.979 6.673c0.941 0.297 1.347 0.983 1.347 2.217 0 2.194-1.561 3.474-4.426 3.634-1.518 0.091-1.796 0.046-1.903-0.297-0.171-0.48 0.684-4.616 1.090-5.302 0.449-0.708 2.138-0.823 3.891-0.251z"></path>
<path fill="#fff" style="fill: var(--color1, #fff)" d="M58.842 2.423c-0.406 0.366-0.791 1.897-2.608 10.352-1.176 5.462-2.138 10.147-2.138 10.421 0 0.868 0.406 1.028 2.566 1.028 1.796 0 2.117-0.069 2.459-0.457 0.214-0.251 0.642-1.645 0.984-3.108 0.321-1.44 0.727-2.811 0.919-3.040 0.278-0.32 0.834-0.434 2.673-0.571 2.545-0.16 5.046-0.754 6.457-1.508 1.368-0.754 3.079-2.605 3.635-3.954 0.428-0.983 0.513-1.577 0.513-3.405 0-2.080-0.043-2.262-0.642-3.177-1.539-2.354-2.822-2.742-9.301-2.88-4.661-0.114-5.067-0.091-5.516 0.297zM67.266 6.742c2.074 0.914 1.54 4.274-0.877 5.393-1.24 0.571-3.528 0.777-4.062 0.366-0.406-0.343-0.406-0.366 0.107-2.674 0.684-3.131 0.919-3.428 2.694-3.428 0.77 0 1.71 0.16 2.138 0.343z"></path>
<path fill="#fff" style="fill: var(--color1, #fff)" d="M94.763 2.743c-0.257 0.251-0.513 0.708-0.577 0.983-0.641 2.88-3.956 19.311-3.956 19.608 0 0.64 0.684 0.891 2.459 0.891 1.86 0 2.309-0.183 2.63-1.074 0.321-0.8 4.105-19.174 4.105-19.837 0-0.846-0.406-1.028-2.352-1.028-1.561 0-1.924 0.069-2.309 0.457z"></path>
<path fill="#fff" style="fill: var(--color1, #fff)" d="M24.29 7.404c-1.625 0.388-2.181 1.028-2.373 2.765-0.086 0.708-0.086 1.371 0.021 1.485 0.107 0.091 0.919-0.023 1.796-0.274 1.924-0.548 4.725-0.663 5.73-0.206 0.791 0.343 1.262 1.257 0.898 1.737-0.128 0.16-1.005 0.343-1.988 0.434-4.212 0.366-6.992 1.348-8.531 2.994-0.983 1.074-1.326 2.080-1.347 4.022 0 1.257 0.086 1.645 0.577 2.422 1.411 2.308 5.196 2.537 8.317 0.526l1.005-0.64v0.571c0 0.823 0.342 0.983 2.309 0.983 1.347 0 1.86-0.091 2.202-0.411 0.385-0.297 0.706-1.463 1.625-5.759 1.689-7.816 1.604-8.981-0.919-10.238-1.133-0.571-1.433-0.617-4.64-0.663-2.224-0.046-3.87 0.046-4.682 0.251zM29.549 16.568c0.107 0.137-0.299 2.171-0.577 2.925-0.256 0.686-1.796 1.371-3.058 1.394-0.962 0.023-1.219-0.069-1.561-0.526-1.24-1.623 0.171-3.177 3.314-3.679 1.475-0.229 1.753-0.251 1.882-0.114z"></path>
<path fill="#fff" style="fill: var(--color1, #fff)" d="M78.535 7.405c-1.646 0.343-1.903 0.594-2.309 2.034-0.363 1.325-0.406 2.125-0.128 2.331 0.107 0.069 0.962-0.091 1.882-0.366 3.186-0.96 6.286-0.571 6.607 0.846 0.192 0.777-0.043 0.914-2.010 1.097-5.474 0.548-8.424 1.897-9.472 4.342-0.492 1.166-0.535 3.771-0.086 4.685 0.77 1.623 2.373 2.4 4.661 2.262 1.475-0.069 1.924-0.251 4.704-1.737 0.086-0.046 0.15 0.114 0.15 0.343 0 0.8 0.449 0.983 2.266 0.983 2.587 0 2.48 0.183 3.849-6.010 0.62-2.879 1.197-5.69 1.262-6.285 0.278-2.262-0.834-3.839-3.207-4.502-1.54-0.411-6.201-0.434-8.168-0.023zM83.666 17.3c-0.128 1.714-0.534 2.445-1.775 3.108-0.919 0.503-1.368 0.617-2.117 0.548-1.646-0.183-2.288-1.805-1.176-2.971 0.641-0.685 1.411-1.005 3.186-1.28 1.817-0.274 1.924-0.251 1.881 0.594z"></path>
<path fill="#fff" style="fill: var(--color1, #fff)" d="M37.204 7.656c-0.214 0.297-0.021 1.943 1.091 8.981l1.347 8.616-1.54 2.834c-0.855 1.577-1.539 3.040-1.539 3.245 0 0.548 0.428 0.663 2.395 0.663 2.908 0 2.416 0.594 8.553-10.467 7.056-12.775 7.227-13.095 7.227-13.689 0-0.526-0.043-0.526-2.438-0.526-2.074 0-2.502 0.069-2.951 0.434-0.278 0.251-1.604 2.468-2.951 4.936-1.326 2.468-2.48 4.388-2.566 4.296s-0.449-2.148-0.812-4.525c-0.813-5.302-0.706-5.142-3.571-5.142-1.497 0-2.053 0.091-2.245 0.343z"></path>
</symbol>
<symbol id="icon-icon-time" viewBox="0 0 32 32">
<path fill="#fdd58c" style="fill: var(--color3, #fdd58c)" d="M13.998 0.086c-2.431 0.3-4.787 1.175-6.819 2.526-3.15 2.094-5.444 5.158-6.519 8.721-0.256 0.825-0.506 2.082-0.6 2.926-0.081 0.781-0.081 2.694 0 3.476 0.675 6.339 5.156 11.753 11.275 13.603 0.825 0.256 2.081 0.506 2.925 0.6 0.781 0.081 2.694 0.081 3.475 0 3.7-0.394 7.131-2.075 9.769-4.789 1.806-1.869 3.087-4.032 3.831-6.489 0.462-1.519 0.662-2.926 0.662-4.664 0-1.307-0.062-2.025-0.287-3.157-1.131-5.751-5.419-10.478-11.050-12.184-0.825-0.256-2.081-0.506-2.925-0.6-0.819-0.088-2.931-0.069-3.738 0.031zM17.98 2.18c1.531 0.225 2.869 0.644 4.237 1.325 3.6 1.8 6.275 5.089 7.287 8.971 0.581 2.219 0.581 4.82 0 7.039-1.269 4.864-5.125 8.721-9.987 9.99-2.219 0.581-4.819 0.581-7.037 0-3.344-0.869-6.287-3.001-8.188-5.914-0.794-1.219-1.431-2.669-1.8-4.076-0.581-2.219-0.581-4.82 0-7.039 1.406-5.395 5.931-9.459 11.462-10.296 1.087-0.163 2.925-0.163 4.025 0z"></path>
<path fill="#fdd58c" style="fill: var(--color3, #fdd58c)" d="M15.449 4.118c-0.112 0.069-0.256 0.213-0.325 0.325-0.119 0.2-0.125 0.325-0.125 5.376v5.176h-8.231l-0.269 0.144c-0.662 0.35-0.681 1.281-0.044 1.757 0.175 0.131 0.206 0.131 5.044 0.131s4.869 0 5.044-0.131c0.094-0.069 0.237-0.225 0.319-0.338l0.137-0.206v-5.852c0-5.726 0-5.858-0.125-6.058-0.187-0.3-0.469-0.45-0.875-0.45-0.231 0-0.412 0.037-0.55 0.125z"></path>
<path fill="#fdd58c" style="fill: var(--color3, #fdd58c)" d="M7.542 7.607l-0.731 0.731 0.706 0.706c0.388 0.381 0.731 0.7 0.763 0.7 0.037 0 0.381-0.319 0.769-0.706l0.7-0.7-1.469-1.469-0.737 0.737z"></path>
<path fill="#fdd58c" style="fill: var(--color3, #fdd58c)" d="M22.73 7.545c-0.369 0.369-0.669 0.7-0.669 0.731 0 0.037 0.313 0.375 0.687 0.75l0.687 0.688 0.731-0.738 0.737-0.731-0.687-0.688c-0.375-0.375-0.713-0.688-0.75-0.688s-0.369 0.3-0.737 0.675z"></path>
<path fill="#fdd58c" style="fill: var(--color3, #fdd58c)" d="M25.999 15.996v1h2v-2h-2v1z"></path>
<path fill="#fdd58c" style="fill: var(--color3, #fdd58c)" d="M22.48 22.048l-0.731 0.731 1.469 1.469 0.706-0.706c0.381-0.387 0.7-0.731 0.7-0.763 0-0.037-0.319-0.381-0.706-0.769l-0.7-0.7-0.737 0.737z"></path>
<path fill="#fdd58c" style="fill: var(--color3, #fdd58c)" d="M7.386 22.142l-0.7 0.7 1.437 1.437 0.688-0.687c0.375-0.375 0.688-0.713 0.688-0.75 0-0.063-1.313-1.406-1.375-1.406-0.019 0-0.35 0.319-0.737 0.706z"></path>
<path fill="#fdd58c" style="fill: var(--color3, #fdd58c)" d="M14.999 26.999v1h2v-2h-2v1z"></path>
</symbol>
<symbol id="icon-icon-twitter" viewBox="0 0 32 32">
<path fill="#fdd58c" style="fill: var(--color3, #fdd58c)" d="M7.128 0.045c-3.391 0.545-6.063 2.949-6.883 6.192-0.257 1.014-0.257 1.158-0.238 10.080 0.025 8.007 0.031 8.64 0.138 9.078 0.807 3.393 3.21 5.779 6.545 6.492 0.501 0.106 1.057 0.113 9.323 0.113s8.823-0.006 9.323-0.113c3.354-0.72 5.832-3.199 6.551-6.555 0.106-0.501 0.113-1.058 0.113-9.329s-0.006-8.828-0.113-9.329c-0.638-2.993-2.709-5.328-5.55-6.28-1.214-0.407-0.526-0.382-10.137-0.394-4.837-0.006-8.885 0.013-9.073 0.044zM25.305 2.311c1.126 0.351 1.883 0.789 2.678 1.54 0.788 0.758 1.351 1.69 1.714 2.855l0.175 0.563v17.468l-0.175 0.563c-0.35 1.127-0.788 1.885-1.539 2.68-0.757 0.789-1.689 1.352-2.853 1.715l-0.563 0.175h-17.458l-0.563-0.175c-2.221-0.689-3.704-2.172-4.393-4.395l-0.175-0.563v-17.468l0.175-0.563c0.563-1.822 1.683-3.168 3.329-3.994 0.375-0.188 1.239-0.463 1.683-0.538 0.175-0.031 4.161-0.050 8.86-0.044l8.541 0.006 0.563 0.175z"></path>
<path fill="#fdd58c" style="fill: var(--color3, #fdd58c)" d="M18.923 7.433c-1.946 0.288-3.598 1.753-4.061 3.631-0.056 0.225-0.1 0.476-0.1 0.563 0 0.301-0.056 0.313-0.688 0.157-1.927-0.476-3.466-1.371-4.887-2.824-0.357-0.363-0.726-0.707-0.82-0.758-0.269-0.138-0.807-0.113-1.051 0.050-0.332 0.225-0.425 0.413-0.626 1.183-0.332 1.334-0.532 3.963-0.382 5.090 0.15 1.096 0.613 2.204 1.339 3.193 0.438 0.601 1.589 1.759 2.19 2.21l0.425 0.319-0.338 0.125c-0.901 0.338-1.664 0.457-2.872 0.444-0.876-0.006-1.057 0.044-1.327 0.401-0.219 0.282-0.269 0.664-0.138 1.008 0.131 0.351 0.257 0.457 1.007 0.877 2.528 1.409 5.606 1.866 8.554 1.258 5.112-1.045 8.86-5.278 9.386-10.581l0.075-0.751 0.688-1.033c0.375-0.57 0.738-1.177 0.807-1.346 0.194-0.507 0.419-1.396 0.419-1.665 0-0.326-0.206-0.72-0.457-0.87-0.363-0.225-0.582-0.225-1.201-0.013-0.307 0.106-0.889 0.238-1.283 0.294l-0.72 0.106-0.538-0.338c-1.020-0.645-2.228-0.902-3.404-0.733zM20.5 9.662c0.319 0.088 0.757 0.357 1.32 0.808 0.238 0.188 0.319 0.213 0.626 0.213 0.194 0 0.538-0.031 0.757-0.063 0.219-0.038 0.413-0.056 0.425-0.038 0.019 0.013-0.206 0.376-0.488 0.801-0.607 0.902-0.676 1.064-0.682 1.628 0 0.225-0.056 0.732-0.125 1.127-0.907 5.259-5.331 8.753-10.55 8.321-0.476-0.044-0.876-0.088-0.889-0.1s0.238-0.15 0.563-0.313c0.751-0.382 1.358-0.783 1.633-1.089 0.476-0.526 0.338-1.202-0.332-1.64-0.188-0.125-0.569-0.376-0.845-0.557-1.815-1.196-3.066-2.711-3.416-4.132-0.094-0.376-0.106-1.678-0.031-2.711l0.050-0.607 0.382 0.307c0.645 0.507 1.345 0.939 2.203 1.352 1.495 0.72 2.822 1.083 4.386 1.196 0.488 0.038 0.601 0.025 0.851-0.081 0.519-0.232 0.682-0.626 0.557-1.377-0.225-1.321 0.588-2.617 1.915-3.049 0.538-0.169 1.064-0.169 1.689 0.006z"></path>
</symbol>
<symbol id="icon-icon-visa" viewBox="0 0 90 32">
<path fill="#fff" style="fill: var(--color1, #fff)" d="M55.213 0.283c-3.779 0.79-7.014 3.242-8.191 6.221-0.879 2.229-0.914 4.985-0.088 6.85 0.879 1.986 2.426 3.405 5.941 5.472 1.195 0.689 2.479 1.601 2.865 2.027 0.58 0.628 0.685 0.871 0.685 1.581 0 1.885-1.635 2.878-4.711 2.878-2.232 0-3.727-0.345-5.783-1.297-0.844-0.385-1.565-0.689-1.582-0.649-0.105 0.122-1.090 6.89-1.019 7.012 0.141 0.264 2.637 1.013 4.394 1.317 4.641 0.79 9.475 0.020 12.34-1.966 3.621-2.513 5.221-7.518 3.674-11.43-0.861-2.168-2.461-3.668-6.223-5.836-2.391-1.378-3.375-2.331-3.375-3.242 0-0.851 0.387-1.439 1.283-2.006 0.668-0.405 0.984-0.446 3.199-0.446 2.303 0 2.566 0.041 4.043 0.649 0.879 0.345 1.635 0.567 1.688 0.507 0.088-0.122 1.037-6.14 1.037-6.606 0-0.182-2.268-0.912-3.516-1.135-1.564-0.284-5.080-0.223-6.662 0.101z"></path>
<path fill="#fff" style="fill: var(--color1, #fff)" d="M0 0.587c0 0.223 0.105 0.446 0.211 0.486 3.34 1.054 6.609 2.716 9.053 4.6 2.953 2.29 6.064 6.465 7.33 9.788 0.264 0.669 0.492 1.155 0.527 1.115s-0.51-3.324-1.213-7.275c-1.371-7.579-1.459-7.863-2.566-8.613-0.563-0.385-0.967-0.405-6.961-0.466-6.363-0.061-6.381-0.061-6.381 0.365z"></path>
<path fill="#fff" style="fill: var(--color1, #fff)" d="M27.246 0.525l-2.039 0.081-3.498 10.335-3.516 10.335-0.299-1.277c-0.932-3.83-4.043-8.593-8.068-12.321-1.775-1.641-2.408-2.128-2.549-1.966-0.070 0.061 3.797 15.544 6.363 25.534 0.088 0.324 0.404 0.344 4.061 0.304l3.973-0.061 5.766-15.483c3.182-8.532 5.783-15.523 5.783-15.564 0-0.061-2.232-0.020-5.977 0.081z"></path>
<path fill="#fff" style="fill: var(--color1, #fff)" d="M35.947 0.627c-0.123 0.426-4.482 30.134-4.482 30.56 0 0.385 0.141 0.405 3.691 0.405 3.674 0 3.691 0 3.779-0.466 0.141-0.729 4.482-30.297 4.482-30.52 0-0.344-7.365-0.304-7.471 0.020z"></path>
<path fill="#fff" style="fill: var(--color1, #fff)" d="M76.149 1.012c-0.422 0.243-0.949 0.77-1.178 1.175-0.299 0.527-10.406 26.649-11.285 29.142-0.070 0.203 0.773 0.263 3.867 0.263h3.955l0.527-1.581c0.281-0.851 0.615-1.905 0.756-2.33l0.229-0.75h9.211l0.299 1.56c0.158 0.871 0.369 1.925 0.457 2.33l0.176 0.77h3.41c2.953 0 3.428-0.041 3.428-0.304 0-0.243-5.379-28.554-5.748-30.256-0.088-0.446-0.105-0.446-3.727-0.446-3.34 0-3.674 0.041-4.377 0.426zM79.963 14.874c0.51 2.675 0.949 5.026 1.002 5.208 0.088 0.345-0.123 0.365-2.83 0.365-1.617 0-2.9-0.081-2.865-0.182 2.9-8.674 3.568-10.538 3.656-10.416 0.070 0.101 0.545 2.351 1.037 5.026z"></path>
</symbol>
<symbol id="icon-icon-western-union" viewBox="0 0 87 32">
<path fill="#fff" style="fill: var(--color1, #fff)" d="M25.672 0.201c-0.947 0.383-1.438 0.766-1.725 1.411-0.558 1.202-0.186 2.891 0.778 3.413 0.22 0.122 1.065 0.435 1.911 0.679 1.624 0.505 2.046 0.853 1.573 1.324-0.355 0.366-1.082 0.209-1.201-0.279-0.085-0.313-0.22-0.348-1.809-0.348h-1.742l0.101 0.609c0.118 0.766 0.677 1.585 1.302 1.916 0.778 0.418 2.554 0.627 3.788 0.453 2.114-0.313 3.146-1.306 3.146-3.065 0-1.010-0.423-1.863-1.133-2.229-0.254-0.139-1.184-0.47-2.030-0.731-1.251-0.383-1.573-0.557-1.573-0.819 0-0.174 0.068-0.313 0.152-0.313s0.27-0.052 0.423-0.104c0.135-0.052 0.372 0.052 0.558 0.261 0.254 0.331 0.49 0.366 1.877 0.366h1.59l-0.118-0.575c-0.288-1.48-1.336-2.107-3.636-2.159-1.048-0.035-1.826 0.035-2.232 0.192z"></path>
<path fill="#fff" style="fill: var(--color1, #fff)" d="M0 0.427c0 0.174 0.389 2.212 0.879 4.545l0.879 4.232 3.907-0.104 0.355-2.525c0.203-1.393 0.372-2.455 0.389-2.351 0.017 0.087 0.169 1.184 0.355 2.438 0.186 1.236 0.338 2.316 0.338 2.386 0 0.087 0.862 0.139 1.928 0.139 1.708 0 1.945-0.035 2.029-0.313 0.101-0.366 1.793-8.498 1.793-8.638 0-0.052-0.71-0.104-1.59-0.104h-1.607l-0.101 0.731c-0.051 0.418-0.203 1.498-0.321 2.403s-0.271 1.533-0.321 1.393c-0.051-0.139-0.237-1.202-0.406-2.351l-0.304-2.090-1.81-0.052c-1.015-0.017-1.826-0.017-1.843 0 0 0.035-0.186 1.184-0.389 2.577-0.22 1.393-0.423 2.368-0.44 2.177s-0.152-1.324-0.304-2.525l-0.288-2.177-1.573-0.052c-1.404-0.035-1.556-0.017-1.556 0.261z"></path>
<path fill="#fff" style="fill: var(--color1, #fff)" d="M14.713 4.659v4.528h6.765v-2.438h-3.382v-0.435c0-0.435 0.017-0.435 1.522-0.435h1.522v-2.438h-1.522c-1.505 0-1.522 0-1.522-0.435v-0.435h3.382v-2.438h-6.765v4.528z"></path>
<path fill="#fff" style="fill: var(--color1, #fff)" d="M33.654 1.437v1.306h2.029v6.444h3.552v-6.444h2.198v-2.612h-7.779v1.306z"></path>
<path fill="#fff" style="fill: var(--color1, #fff)" d="M43.463 4.659v4.528h6.934v-2.438h-3.382v-0.435c0-0.435 0.017-0.435 1.437-0.435h1.438v-2.438h-1.438c-1.421 0-1.437 0-1.437-0.435s0-0.435 1.607-0.435h1.607v-2.438h-6.765v4.528z"></path>
<path fill="#fff" style="fill: var(--color1, #fff)" d="M52.765 4.659v4.528h3.382v-1.567c0-1.55 0-1.567 0.423-1.567 0.491 0 0.677 0.331 0.829 1.48 0.254 1.794 0.085 1.654 2.029 1.654h1.725l-0.27-1.794c-0.305-1.968-0.507-2.473-1.032-2.647-0.338-0.122-0.338-0.139 0.135-0.435 0.66-0.401 0.964-1.202 0.846-2.194-0.169-1.672-1.015-1.985-5.175-1.985h-2.892v4.528zM57.331 2.656c0.372 0.453-0.051 1.132-0.676 1.132-0.474 0-0.507-0.035-0.507-0.697 0-0.644 0.034-0.697 0.491-0.697 0.27 0 0.575 0.122 0.693 0.261z"></path>
<path fill="#fff" style="fill: var(--color1, #fff)" d="M63.419 4.659v4.528h2.875l0.017-2.49 0.017-2.473 0.575 1.742c0.304 0.958 0.693 2.072 0.846 2.473l0.271 0.749h4.194v-9.056h-2.875l-0.017 2.473v2.49l-0.863-2.49-0.846-2.473h-4.194v4.528z"></path>
<path fill="#fff" style="fill: var(--color1, #fff)" d="M84.576 0.584c-0.203 0.261-0.355 0.592-0.355 0.766 0 0.575 0.66 1.219 1.251 1.219 0.71 0 1.116-0.453 1.116-1.254 0-1.167-1.319-1.637-2.012-0.731zM85.54 0.618c-0.44 0.052-0.474 0.122-0.457 0.784 0.017 0.401 0.051 0.592 0.101 0.418 0.101-0.383 0.254-0.383 0.524 0.052 0.186 0.313 0.169 0.348-0.186 0.348-0.575 0-1.032-0.575-0.896-1.132 0.118-0.488 0.693-0.801 1.116-0.627 0.169 0.070 0.101 0.122-0.203 0.157zM86.284 1.629c-0.203 0.383-0.389 0.070-0.254-0.435 0.085-0.348 0.118-0.366 0.254-0.122 0.085 0.157 0.085 0.401 0 0.557z"></path>
<path fill="#fff" style="fill: var(--color1, #fff)" d="M74.074 10.057v9.752h1.184v-19.505h-1.184v9.752z"></path>
<path fill="#fff" style="fill: var(--color1, #fff)" d="M82.191 10.057v9.752h1.184v-19.505h-1.184v9.752z"></path>
<path fill="#fff" style="fill: var(--color1, #fff)" d="M55.386 10.685c-1.556 0.418-2.384 1.027-3.010 2.229-0.507 0.975-0.541 3.866-0.051 4.807 0.761 1.498 1.945 2.264 3.67 2.403 3.129 0.226 4.955-1.533 4.955-4.754 0-2.246-0.795-3.675-2.418-4.371-0.626-0.279-2.554-0.47-3.146-0.313zM57.212 14.255c0.203 0.975 0 2.873-0.338 3.222-0.135 0.139-0.389 0.244-0.524 0.209-0.524-0.105-0.727-0.853-0.677-2.543 0.051-1.376 0.101-1.672 0.372-1.881 0.507-0.366 0.998 0.052 1.167 0.993z"></path>
<path fill="#fff" style="fill: var(--color1, #fff)" d="M23.338 13.993c0 1.672 0.085 3.396 0.186 3.814 0.406 1.672 2.114 2.49 4.684 2.299 1.539-0.122 2.587-0.627 3.112-1.48 0.372-0.61 0.389-0.853 0.44-4.18l0.051-3.518h-3.568v2.856c0 3.152-0.118 3.814-0.71 3.727-0.524-0.070-0.609-0.522-0.626-3.762l-0.017-2.821h-3.552v3.065z"></path>
<path fill="#fff" style="fill: var(--color1, #fff)" d="M34.331 15.456v4.528h3.027l0.051-2.368 0.051-2.351 1.556 4.632 4.279 0.104v-9.073h-2.858l-0.051 2.473-0.051 2.473-0.829-2.473-0.812-2.473h-4.363v4.528z"></path>
<path fill="#fff" style="fill: var(--color1, #fff)" d="M46 15.456v4.528h3.551v-9.056h-3.551v4.528z"></path>
<path fill="#fff" style="fill: var(--color1, #fff)" d="M63.419 15.456v4.528h2.858l0.051-2.456 0.051-2.438 0.829 2.438 0.812 2.456h4.194v-9.056h-2.858l-0.051 2.386-0.051 2.403-1.556-4.702-4.279-0.104v4.545z"></path>
<path fill="#fff" style="fill: var(--color1, #fff)" d="M10.993 28.952v2.873h1.184l0.017-1.968 0.017-1.951 0.609 1.968 0.626 1.968 0.575-0.052 0.592-0.052 0.643-2.003 0.626-2.003 0.017 2.037v2.055h1.353l-0.034-2.839-0.051-2.821-0.66-0.052c-1.268-0.104-1.336-0.035-1.877 1.864-0.271 0.958-0.541 1.689-0.609 1.62-0.051-0.070-0.186-0.435-0.287-0.818s-0.304-1.15-0.457-1.707l-0.271-0.993h-2.012v2.874z"></path>
<path fill="#fff" style="fill: var(--color1, #fff)" d="M19.449 26.392c-0.913 0.47-1.404 1.567-1.302 2.978 0.135 1.724 1.032 2.63 2.655 2.63 1.607 0 2.587-1.097 2.604-2.943 0.017-1.864-0.964-2.978-2.604-2.978-0.423 0-1.032 0.139-1.353 0.314zM21.563 27.472c0.321 0.366 0.524 1.654 0.355 2.351-0.152 0.61-0.693 1.132-1.167 1.132-1.184 0-1.725-2.421-0.778-3.466 0.423-0.453 1.184-0.47 1.59-0.017z"></path>
<path fill="#fff" style="fill: var(--color1, #fff)" d="M24.353 28.952v2.874h1.353l0.017-1.968v-1.95l0.913 1.95 0.913 1.968h1.708v-5.747h-1.184l-0.017 1.951-0.017 1.968-0.913-1.968-0.93-1.95h-1.843v2.873z"></path>
<path fill="#fff" style="fill: var(--color1, #fff)" d="M30.56 26.201c-0.068 0.052-0.118 1.358-0.118 2.873v2.752h3.89v-1.045h-2.554l0.051-0.662 0.051-0.644h2.030l0.051-0.575 0.051-0.557h-2.216v-1.045h2.368v-1.219h-1.742c-0.964 0-1.809 0.052-1.86 0.122z"></path>
<path fill="#fff" style="fill: var(--color1, #fff)" d="M42.449 26.688c0 0.61 0 0.61 0.761 0.61h0.761v4.528h1.353v-4.528h1.691v-1.219h-4.566v0.61z"></path>
<path fill="#fff" style="fill: var(--color1, #fff)" d="M47.64 26.201c-0.068 0.052-0.118 1.358-0.118 2.873v2.752h1.522v-1.028c0-0.575 0.068-1.080 0.135-1.132 0.085-0.052 0.372-0.035 0.643 0.052 0.44 0.122 0.507 0.226 0.643 1.115l0.152 0.993h0.761c0.558 0 0.727-0.052 0.66-0.244-0.051-0.122-0.135-0.61-0.203-1.080s-0.22-1.010-0.338-1.201c-0.169-0.296-0.152-0.401 0.118-0.679 0.389-0.435 0.389-1.341 0.017-1.829-0.169-0.209-0.609-0.453-0.981-0.54-0.778-0.191-2.858-0.226-3.010-0.052zM50.414 27.577c0.355 0.435-0.017 0.853-0.846 0.905-0.693 0.052-0.693 0.052-0.693-0.557s0.017-0.627 0.66-0.627c0.389 0 0.744 0.104 0.879 0.279z"></path>
<path fill="#fff" style="fill: var(--color1, #fff)" d="M54.371 26.236c-0.101 0.192-1.945 5.381-1.945 5.503 0 0.052 0.304 0.087 0.66 0.087 0.609 0 0.676-0.052 0.862-0.61 0.186-0.575 0.237-0.61 0.981-0.61 0.964 0 1.15 0.122 1.302 0.749 0.102 0.418 0.203 0.47 0.862 0.47h0.727l-0.913-2.717c-0.507-1.48-0.964-2.769-1.015-2.873-0.135-0.209-1.387-0.209-1.522 0zM55.285 28.203c0.068 0.226 0.186 0.61 0.254 0.871 0.101 0.453 0.068 0.488-0.474 0.488h-0.575l0.27-0.871c0.152-0.488 0.287-0.871 0.321-0.871s0.118 0.174 0.203 0.383z"></path>
<path fill="#fff" style="fill: var(--color1, #fff)" d="M58.633 26.201c-0.068 0.052-0.118 1.358-0.118 2.873v2.752h1.353l0.017-1.968 0.017-1.951 1.826 3.936 1.776-0.104v-5.573l-0.626-0.052-0.643-0.052-0.017 1.968-0.017 1.968-0.896-1.968-0.913-1.95h-0.829c-0.457 0-0.879 0.052-0.93 0.122z"></path>
<path fill="#fff" style="fill: var(--color1, #fff)" d="M65.33 26.41c-0.558 0.366-0.778 0.836-0.761 1.637 0.017 0.731 0.457 1.132 1.624 1.498 1.201 0.383 1.539 0.766 1.032 1.167-0.507 0.383-1.15 0.244-1.404-0.331-0.186-0.383-0.338-0.47-0.812-0.47-0.541 0-0.575 0.035-0.575 0.575 0 0.888 0.626 1.393 1.843 1.48 1.624 0.122 2.604-0.61 2.52-1.881-0.068-0.888-0.507-1.306-1.742-1.637-0.93-0.244-1.285-0.627-0.947-1.045 0.355-0.435 1.015-0.348 1.235 0.157 0.152 0.331 0.321 0.435 0.761 0.435 0.507 0 0.558-0.052 0.558-0.488 0-0.801-0.677-1.306-1.826-1.376-0.744-0.052-1.083 0-1.505 0.279z"></path>
<path fill="#fff" style="fill: var(--color1, #fff)" d="M69.964 26.201c-0.068 0.052-0.118 1.358-0.118 2.873v2.752h1.353v-2.264h2.216l-0.051-0.575c-0.051-0.557-0.051-0.557-1.099-0.61s-1.065-0.052-1.065-0.557v-0.523h2.199v-1.219h-1.657c-0.913 0-1.725 0.052-1.776 0.122z"></path>
<path fill="#fff" style="fill: var(--color1, #fff)" d="M74.243 28.952v2.874h3.89v-1.045h-2.537v-1.219h0.913c1.235 0 1.454-0.105 1.454-0.714v-0.505h-2.368v-1.045h2.554l-0.051-0.575-0.051-0.557-3.805-0.104v2.891z"></path>
<path fill="#fff" style="fill: var(--color1, #fff)" d="M79.096 26.201c-0.068 0.052-0.118 1.358-0.118 2.873v2.752h1.353v-2.107l1.438 0.104 0.152 0.993 0.135 1.010h1.353l-0.118-1.010c-0.051-0.54-0.22-1.167-0.355-1.393-0.237-0.348-0.22-0.435 0.101-0.853 0.727-0.958 0.254-2.072-1.015-2.334-0.913-0.174-2.773-0.209-2.926-0.035zM81.768 27.907c0 0.488-0.051 0.523-0.71 0.575l-0.727 0.052v-1.254l0.727 0.052c0.66 0.052 0.71 0.087 0.71 0.575z"></path>
<path fill="#fff" style="fill: var(--color1, #fff)" d="M35.751 28.082c0.829 1.567 0.947 1.95 0.947 2.786v0.958h1.353v-1.062c0-0.923 0.102-1.237 0.846-2.664 0.473-0.888 0.846-1.672 0.846-1.724 0-0.070-0.304-0.122-0.677-0.122-0.66 0-0.677 0.017-1.15 1.080l-0.491 1.097-0.524-1.097-0.541-1.080h-1.556l0.947 1.829z"></path>
</symbol>
<symbol id="icon-icon-phone" viewBox="0 0 31 32">
<path fill="#fdd58c" style="fill: var(--color1, #fdd58c)" d="M16.464 0.137c-0.126 0.084-0.246 0.246-0.318 0.413-0.102 0.252-0.108 0.311-0.042 0.539 0.138 0.449 0.36 0.605 1.115 0.761 3.842 0.797 7.054 2.929 9.326 6.204 1.097 1.575 1.834 3.354 2.301 5.552 0.108 0.509 0.252 0.743 0.545 0.862 0.444 0.186 0.923 0.042 1.163-0.347 0.15-0.246 0.15-0.425 0-1.162-0.881-4.3-3.446-8.055-7.192-10.516-1.612-1.066-3.488-1.857-5.436-2.294-0.851-0.192-1.193-0.192-1.462-0.012z"></path>
<path fill="#fdd58c" style="fill: var(--color1, #fdd58c)" d="M5.142 1.85c-0.869 0.24-1.241 0.527-2.949 2.3-1.39 1.443-1.654 1.809-1.93 2.629-0.084 0.246-0.18 0.647-0.222 0.892-0.084 0.539-0.036 1.916 0.090 2.599 0.467 2.539 1.978 5.797 3.992 8.618 2.607 3.653 5.802 6.63 9.434 8.803 4.357 2.605 8.175 3.563 10.512 2.629 0.731-0.293 1.175-0.653 2.655-2.15 1.846-1.875 2.062-2.228 2.062-3.408-0.006-0.689-0.12-1.090-0.485-1.647-0.12-0.18-1.175-1.288-2.355-2.461-1.888-1.881-2.182-2.15-2.553-2.342-0.683-0.347-1.348-0.431-2.038-0.258-0.707 0.186-1.001 0.401-2.325 1.707l-1.253 1.228-0.545-0.293c-2.697-1.443-6.197-4.977-7.45-7.54l-0.156-0.317 1.133-1.132c0.623-0.629 1.247-1.306 1.378-1.509 0.348-0.521 0.509-1.042 0.509-1.623 0-0.575-0.078-0.874-0.36-1.419-0.186-0.371-0.467-0.671-2.403-2.611-2.379-2.378-2.559-2.527-3.362-2.713-0.503-0.12-0.893-0.114-1.378 0.018zM6.401 3.719c0.114 0.054 1.133 1.030 2.26 2.162 1.882 1.886 2.050 2.078 2.134 2.354 0.186 0.641-0.006 0.922-1.678 2.533-1.331 1.282-1.426 1.425-1.378 2.018 0.024 0.311 0.096 0.521 0.396 1.132 0.797 1.611 1.972 3.15 3.806 4.977 1.564 1.563 3.123 2.731 4.723 3.557 0.755 0.389 0.851 0.425 1.187 0.425 0.252 0 0.444-0.042 0.617-0.126 0.144-0.078 0.827-0.695 1.63-1.485 1.127-1.114 1.426-1.371 1.624-1.431 0.641-0.186 0.737-0.114 3.063 2.222 2.068 2.072 2.235 2.276 2.235 2.737 0 0.419-0.198 0.689-1.48 1.994-1.367 1.389-1.528 1.545-1.948 1.755-1.097 0.557-2.919 0.395-5.172-0.461-3.74-1.425-7.761-4.27-10.608-7.498-1.894-2.156-3.26-4.156-4.345-6.36-1.678-3.414-2.092-5.959-1.211-7.426 0.18-0.299 2.793-2.941 3.039-3.066 0.384-0.21 0.719-0.21 1.109-0.012z"></path>
<path fill="#fdd58c" style="fill: var(--color1, #fdd58c)" d="M16.47 5.569c-0.264 0.066-0.581 0.407-0.635 0.689-0.102 0.557 0.246 0.988 0.911 1.108 2.871 0.527 5.4 2.785 6.305 5.63 0.096 0.311 0.198 0.689 0.222 0.832 0.108 0.641 0.419 0.976 0.911 0.982 0.569 0.006 0.917-0.335 0.917-0.898 0-0.395-0.288-1.503-0.569-2.204-1.193-2.947-3.812-5.24-6.844-5.983-0.767-0.186-0.965-0.216-1.217-0.156z"></path>
</symbol>
<symbol id="icon-calendar-reservation-traced" viewBox="0 0 32 32">
<path d="M8.004 0.106c-0.181 0.094-0.344 0.25-0.463 0.438-0.169 0.275-0.181 0.35-0.213 1.076l-0.031 0.782h-0.825c-1.413 0-2.47 0.269-3.502 0.901-1.332 0.801-2.282 2.040-2.764 3.579l-0.175 0.557-0.019 9.48c-0.013 6.996 0 9.605 0.056 9.949 0.169 1.108 0.75 2.284 1.545 3.135 0.819 0.876 1.701 1.427 2.858 1.79l0.563 0.175h21.886l0.494-0.144c0.688-0.2 1.276-0.457 1.807-0.801 0.625-0.401 1.563-1.377 1.939-2.002 0.356-0.607 0.694-1.514 0.788-2.153 0.056-0.344 0.069-2.954 0.056-9.949l-0.019-9.48-0.175-0.563c-0.725-2.315-2.583-3.974-4.902-4.38-0.294-0.050-0.907-0.094-1.363-0.094h-0.825l-0.031-0.782c-0.031-0.726-0.044-0.801-0.213-1.076-0.263-0.425-0.619-0.601-1.157-0.569-0.469 0.025-0.75 0.175-1.001 0.538-0.137 0.2-0.15 0.294-0.169 1.058l-0.025 0.832h-12.231l-0.025-0.832c-0.019-0.763-0.031-0.857-0.169-1.058-0.25-0.363-0.532-0.513-1.001-0.538-0.344-0.019-0.463 0.006-0.694 0.131zM7.316 6.157c0 1.464 0.050 1.733 0.4 2.096 0.588 0.613 1.601 0.488 2.020-0.25 0.138-0.238 0.144-0.319 0.144-1.646v-1.389h12.256v1.389c0 1.327 0.006 1.408 0.144 1.646 0.419 0.738 1.432 0.864 2.020 0.25 0.35-0.363 0.4-0.632 0.4-2.096v-1.189h0.769c1.495 0 2.495 0.444 3.245 1.445 0.55 0.738 0.725 1.302 0.782 2.534l0.037 0.838h-27.051l0.038-0.838c0.038-0.895 0.15-1.452 0.388-1.909 0.219-0.438 0.613-0.932 0.976-1.233 0.757-0.62 1.426-0.832 2.639-0.832l0.794-0.006v1.189zM29.502 19.373c-0.019 6.602-0.031 7.046-0.138 7.371-0.331 1.001-1.001 1.84-1.82 2.265-0.875 0.457-0.050 0.426-11.537 0.426s-10.662 0.031-11.537-0.426c-0.819-0.425-1.488-1.264-1.82-2.265-0.106-0.325-0.119-0.77-0.138-7.371l-0.019-7.021h27.026l-0.019 7.021z"></path>
<path d="M6.878 16.050c-0.619 0.244-0.938 1.133-0.632 1.74 0.163 0.313 0.513 0.613 0.769 0.663 0.113 0.019 0.913 0.031 1.782 0.019l1.57-0.019 0.244-0.194c0.313-0.244 0.519-0.657 0.519-1.026-0.006-0.501-0.344-1.026-0.769-1.183-0.225-0.088-3.264-0.088-3.483 0z"></path>
<path d="M14.225 16.069c-0.238 0.106-0.569 0.451-0.65 0.682-0.094 0.244-0.088 0.757 0.013 1.001 0.119 0.275 0.557 0.657 0.807 0.701 0.113 0.019 0.913 0.031 1.782 0.019l1.569-0.019 0.244-0.194c0.681-0.544 0.681-1.508 0-2.053l-0.244-0.194-1.663-0.013c-1.307-0.012-1.713 0-1.857 0.069z"></path>
<path d="M21.604 16.069c-0.25 0.113-0.5 0.388-0.619 0.676-0.219 0.519-0.044 1.145 0.419 1.514l0.244 0.194 1.569 0.019c0.869 0.013 1.67 0 1.782-0.019 0.256-0.050 0.607-0.357 0.775-0.676 0.194-0.382 0.144-0.957-0.113-1.27-0.413-0.507-0.338-0.494-2.201-0.507-1.301-0.012-1.713 0-1.857 0.069z"></path>
<path d="M7.047 23.39c-0.338 0.094-0.7 0.4-0.832 0.707-0.125 0.294-0.113 0.795 0.031 1.076 0.163 0.313 0.513 0.613 0.769 0.663 0.113 0.019 0.913 0.031 1.782 0.019l1.57-0.019 0.244-0.194c0.313-0.244 0.519-0.657 0.519-1.026-0.006-0.501-0.338-1.014-0.782-1.195-0.281-0.119-2.908-0.144-3.302-0.031z"></path>
<path d="M14.495 23.358c-0.3 0.063-0.619 0.282-0.807 0.557-0.125 0.188-0.15 0.3-0.15 0.707 0 0.444 0.013 0.501 0.194 0.72 0.406 0.507 0.338 0.494 2.182 0.513 1.532 0.019 1.67 0.013 1.888-0.106 0.3-0.15 0.488-0.35 0.613-0.645 0.256-0.632-0.063-1.427-0.688-1.683-0.213-0.094-2.851-0.144-3.233-0.063z"></path>
<path d="M22.104 23.333c-0.031 0.013-0.169 0.037-0.3 0.063-0.131 0.019-0.331 0.125-0.463 0.238-0.625 0.551-0.594 1.483 0.063 2.009l0.244 0.194h3.477l0.244-0.194c0.457-0.363 0.65-1.039 0.438-1.546-0.138-0.319-0.544-0.645-0.913-0.726-0.288-0.063-2.626-0.094-2.789-0.037z"></path>
</symbol>
<symbol id="icon-email-reservation-traced" viewBox="0 0 32 32">
<path d="M3.779 4.094c-0.977 0.269-1.897 0.969-2.345 1.813-0.46 0.869-0.434 0.213-0.434 10.094s-0.026 9.225 0.434 10.087c0.319 0.6 0.958 1.213 1.559 1.506 0.907 0.437-0.102 0.406 13.333 0.406 13.519 0 12.497 0.031 13.385-0.425 0.581-0.3 1.214-0.919 1.521-1.487 0.46-0.863 0.434-0.206 0.434-10.087s0.026-9.225-0.434-10.088c-0.307-0.569-0.939-1.188-1.521-1.487-0.894-0.456 0.141-0.425-13.416-0.419-10.069 0.006-12.254 0.019-12.516 0.088zM28.542 6.162c0.371 0.169 0.741 0.531 0.894 0.875 0.070 0.156 0.134 0.487 0.16 0.819l0.038 0.55-13.301 8.356-13.301-8.356 0.038-0.55c0.019-0.3 0.083-0.65 0.134-0.775 0.23-0.544 0.716-0.919 1.291-1.019 0.173-0.025 5.584-0.044 12.030-0.037l11.723 0.006 0.294 0.131zM9.465 14.919c3.444 2.162 6.325 3.969 6.402 4.006 0.077 0.044 0.287 0.075 0.466 0.075s0.39-0.031 0.466-0.075c0.166-0.087 12.624-7.912 12.746-8.006 0.064-0.050 0.077 1.238 0.064 6.838-0.019 6.881-0.019 6.9-0.153 7.187-0.173 0.363-0.543 0.725-0.914 0.894l-0.294 0.131h-23.83l-0.294-0.131c-0.371-0.169-0.741-0.531-0.914-0.894-0.134-0.287-0.134-0.306-0.153-7.187-0.013-5.6 0-6.888 0.064-6.838 0.045 0.037 2.9 1.838 6.344 4z"></path>
</symbol>
<symbol id="icon-oclock-reservation-traced" viewBox="0 0 32 32">
<path d="M14 0.086c-2.431 0.3-4.787 1.175-6.819 2.526-3.15 2.094-5.444 5.158-6.519 8.721-0.256 0.825-0.506 2.082-0.6 2.926-0.081 0.781-0.081 2.695 0 3.476 0.675 6.339 5.156 11.753 11.275 13.603 0.825 0.256 2.081 0.506 2.925 0.6 0.781 0.081 2.694 0.081 3.475 0 3.7-0.394 7.131-2.076 9.769-4.789 1.806-1.869 3.087-4.032 3.831-6.489 0.463-1.519 0.663-2.926 0.663-4.664 0-1.307-0.063-2.025-0.287-3.157-1.131-5.751-5.419-10.478-11.050-12.184-0.825-0.256-2.081-0.506-2.925-0.6-0.819-0.088-2.931-0.069-3.737 0.031zM17.981 2.18c1.531 0.225 2.869 0.644 4.238 1.325 3.6 1.8 6.275 5.089 7.287 8.971 0.581 2.219 0.581 4.82 0 7.039-1.269 4.864-5.125 8.721-9.987 9.99-2.219 0.581-4.819 0.581-7.038 0-3.344-0.869-6.287-3.001-8.188-5.914-0.794-1.219-1.431-2.669-1.8-4.076-0.581-2.219-0.581-4.82 0-7.039 1.406-5.395 5.931-9.459 11.463-10.296 1.087-0.163 2.925-0.163 4.025 0z"></path>
<path d="M15.45 4.118c-0.113 0.069-0.256 0.213-0.325 0.325-0.119 0.2-0.125 0.325-0.125 5.376v5.176h-8.231l-0.269 0.144c-0.662 0.35-0.681 1.282-0.044 1.757 0.175 0.131 0.206 0.131 5.044 0.131s4.869 0 5.044-0.131c0.094-0.069 0.238-0.225 0.319-0.338l0.137-0.206v-5.852c0-5.726 0-5.858-0.125-6.058-0.188-0.3-0.469-0.45-0.875-0.45-0.231 0-0.413 0.038-0.55 0.125z"></path>
<path d="M7.544 7.607l-0.731 0.731 0.706 0.706c0.388 0.381 0.731 0.7 0.763 0.7 0.037 0 0.381-0.319 0.769-0.706l0.7-0.7-1.469-1.469-0.737 0.737z"></path>
<path d="M22.731 7.544c-0.369 0.369-0.669 0.7-0.669 0.731 0 0.037 0.313 0.375 0.687 0.75l0.687 0.688 0.731-0.738 0.737-0.731-0.687-0.688c-0.375-0.375-0.713-0.688-0.75-0.688s-0.369 0.3-0.738 0.675z"></path>
<path d="M26 15.996v1h2v-2h-2v1z"></path>
<path d="M22.481 22.048l-0.731 0.731 1.469 1.469 0.706-0.706c0.381-0.387 0.7-0.731 0.7-0.762 0-0.038-0.319-0.381-0.706-0.769l-0.7-0.7-0.738 0.737z"></path>
<path d="M7.388 22.142l-0.7 0.7 1.438 1.438 0.688-0.688c0.375-0.375 0.688-0.712 0.688-0.75 0-0.062-1.313-1.406-1.375-1.406-0.019 0-0.35 0.319-0.737 0.706z"></path>
<path d="M15 26.999v1h2v-2h-2v1z"></path>
</symbol>
<symbol id="icon-phone-reservation-traced" viewBox="0 0 32 32">
<path d="M17.192 0.144c-0.131 0.087-0.256 0.256-0.331 0.431-0.106 0.262-0.113 0.325-0.044 0.563 0.144 0.469 0.375 0.631 1.163 0.794 4.009 0.831 7.361 3.056 9.731 6.475 1.144 1.644 1.914 3.5 2.401 5.794 0.113 0.531 0.263 0.775 0.569 0.9 0.463 0.194 0.963 0.044 1.213-0.362 0.156-0.256 0.156-0.444 0-1.212-0.919-4.487-3.596-8.406-7.505-10.975-1.682-1.113-3.64-1.938-5.672-2.394-0.888-0.2-1.245-0.2-1.526-0.013z"></path>
<path d="M5.379 1.931c-0.907 0.25-1.295 0.55-3.077 2.4-1.451 1.506-1.726 1.888-2.014 2.744-0.088 0.256-0.188 0.675-0.231 0.931-0.088 0.563-0.038 2 0.094 2.713 0.488 2.65 2.064 6.050 4.165 8.994 2.72 3.813 6.054 6.919 9.844 9.188 4.547 2.719 8.53 3.719 10.969 2.744 0.763-0.306 1.226-0.681 2.77-2.244 1.926-1.956 2.151-2.325 2.151-3.556-0.006-0.719-0.125-1.138-0.507-1.719-0.125-0.188-1.226-1.344-2.458-2.569-1.97-1.962-2.276-2.244-2.664-2.444-0.713-0.362-1.407-0.45-2.126-0.269-0.738 0.194-1.044 0.419-2.427 1.781l-1.307 1.281-0.569-0.306c-2.814-1.506-6.467-5.194-7.774-7.869l-0.163-0.331 1.182-1.181c0.65-0.656 1.301-1.363 1.438-1.575 0.363-0.544 0.532-1.088 0.532-1.694 0-0.6-0.081-0.912-0.375-1.481-0.194-0.388-0.488-0.7-2.508-2.725-2.483-2.481-2.67-2.638-3.508-2.831-0.525-0.125-0.932-0.119-1.438 0.019zM6.692 3.881c0.119 0.056 1.182 1.075 2.358 2.256 1.964 1.969 2.139 2.169 2.226 2.456 0.194 0.669-0.006 0.963-1.751 2.644-1.388 1.338-1.488 1.488-1.438 2.106 0.025 0.325 0.1 0.544 0.413 1.181 0.832 1.681 2.058 3.287 3.971 5.194 1.632 1.631 3.258 2.85 4.928 3.713 0.788 0.406 0.888 0.444 1.238 0.444 0.263 0 0.463-0.044 0.644-0.131 0.15-0.081 0.863-0.725 1.701-1.55 1.176-1.162 1.488-1.431 1.695-1.494 0.669-0.194 0.769-0.119 3.196 2.319 2.158 2.162 2.333 2.375 2.333 2.856 0 0.437-0.206 0.719-1.545 2.081-1.426 1.45-1.595 1.613-2.033 1.831-1.144 0.581-3.046 0.413-5.397-0.481-3.903-1.487-8.099-4.456-11.070-7.825-1.976-2.25-3.402-4.338-4.534-6.638-1.751-3.563-2.183-6.219-1.263-7.75 0.188-0.313 2.914-3.069 3.171-3.2 0.4-0.219 0.75-0.219 1.157-0.013z"></path>
<path d="M17.199 5.813c-0.275 0.069-0.607 0.425-0.663 0.719-0.106 0.581 0.256 1.031 0.951 1.156 2.996 0.55 5.635 2.906 6.579 5.875 0.1 0.325 0.206 0.719 0.231 0.869 0.113 0.669 0.438 1.019 0.951 1.025 0.594 0.006 0.957-0.35 0.957-0.938 0-0.412-0.3-1.569-0.594-2.3-1.244-3.075-3.977-5.469-7.142-6.244-0.8-0.194-1.007-0.225-1.27-0.162z"></path>
</symbol>
<symbol id="icon-user-reservation-traced" viewBox="0 0 32 32">
<path d="M14.665 0.032c-1.092 0.175-2.040 0.5-2.77 0.938-1.129 0.675-2.159 1.701-2.832 2.813-0.349 0.575-0.661 1.375-0.836 2.113-0.181 0.782-0.225 2.345-0.087 3.132 0.399 2.301 1.778 4.252 3.855 5.446 2.046 1.175 4.773 1.275 7.012 0.263 0.749-0.338 1.454-0.857 2.184-1.582 1.634-1.638 2.352-3.501 2.252-5.802-0.094-2.044-0.786-3.651-2.209-5.096-1.135-1.157-2.552-1.901-4.117-2.176-0.493-0.088-2.040-0.119-2.452-0.050zM17.336 2.108c0.936 0.275 1.784 0.794 2.527 1.551s1.154 1.45 1.46 2.438c0.156 0.506 0.168 0.631 0.168 1.613-0.006 0.969-0.019 1.113-0.168 1.613-0.287 0.944-0.705 1.644-1.441 2.407-1.098 1.144-2.558 1.763-4.117 1.763-1.547-0.006-2.82-0.513-3.924-1.563-0.861-0.819-1.385-1.651-1.678-2.67-0.125-0.425-0.143-0.625-0.137-1.582 0-1.013 0.012-1.138 0.175-1.657 0.424-1.382 1.404-2.601 2.72-3.382 0.487-0.288 0.961-0.469 1.628-0.619 0.605-0.138 2.19-0.088 2.789 0.088z"></path>
<path d="M8.801 15.469c-1.441 0.213-2.533 0.75-3.45 1.694-1.747 1.801-2.726 4.996-2.726 8.903 0 1.651 0.119 2.238 0.643 3.276 0.193 0.381 0.393 0.638 0.824 1.069 0.611 0.619 1.142 0.969 1.884 1.232 1.029 0.375 0.686 0.363 10.225 0.344l8.728-0.019 0.53-0.163c0.674-0.213 1.029-0.369 1.479-0.656 1.042-0.663 1.809-1.713 2.14-2.901 0.2-0.744 0.256-1.632 0.187-3.001-0.312-6.127-2.633-9.578-6.582-9.797-0.848-0.044-0.861-0.044-2.315 0.894-1.123 0.719-1.903 1.075-2.938 1.344-0.78 0.206-2.177 0.206-2.951 0.006-1.104-0.288-1.847-0.631-2.97-1.363-0.412-0.269-0.917-0.581-1.135-0.694-0.362-0.188-0.443-0.206-0.905-0.2-0.281 0.006-0.58 0.019-0.668 0.031zM10.454 17.976c1.117 0.719 1.946 1.125 2.913 1.419 1.884 0.569 3.668 0.531 5.546-0.125 0.855-0.294 1.466-0.613 2.57-1.325l0.923-0.588 0.381 0.037c2.302 0.263 3.699 2.151 4.323 5.821 0.187 1.088 0.299 3.12 0.218 3.851-0.168 1.513-1.11 2.563-2.608 2.913-0.449 0.106-0.992 0.113-8.809 0.113-9.258 0-8.672 0.025-9.601-0.419-0.512-0.244-1.154-0.875-1.391-1.363-0.299-0.625-0.362-1.013-0.362-2.226 0.006-3.295 0.774-6.008 2.134-7.497 0.524-0.575 1.179-0.944 2.015-1.125 0.705-0.156 0.724-0.15 1.747 0.513z"></path>
</symbol>
<symbol id="icon-Vector-1-person-reservation" viewBox="0 0 81 32">
<path stroke-linejoin="miter" stroke-linecap="butt" stroke-miterlimit="4" stroke-width="5.8182" d="M2.909 2.909l37.818 23.273 37.818-23.273"></path>
</symbol>
<symbol id="icon-icon-location-map-contacts" viewBox="0 0 28 32">
<path fill="#ca5d4f" style="fill: var(--color1, #ca5d4f)" d="M12.077 0.11c-4.079 0.607-7.555 2.76-9.857 6.103-0.839 1.221-1.607 3.029-1.928 4.538-0.879 4.162 0.216 8.018 3.496 12.268 1.515 1.965 3.771 4.194 7.188 7.098 2.184 1.859 2.236 1.884 3.246 1.884s1.062-0.025 3.246-1.884c3.417-2.904 5.673-5.132 7.188-7.098 2.427-3.148 3.646-6.059 3.778-9.013 0.131-3.142-0.885-6.19-2.951-8.794-0.551-0.689-1.915-1.978-2.669-2.51-1.817-1.296-3.856-2.147-6.066-2.535-1.076-0.194-3.568-0.225-4.67-0.056zM15.953 2.025c2.689 0.401 4.991 1.508 6.886 3.317 1.83 1.746 3.004 3.937 3.417 6.359 0.518 3.061-0.275 5.915-2.532 9.157-1.659 2.378-3.561 4.331-7.477 7.667-1.515 1.296-1.869 1.565-2.027 1.565s-0.512-0.269-2.027-1.565c-3.915-3.336-5.817-5.289-7.477-7.667-2.256-3.242-3.050-6.096-2.532-9.157 0.708-4.169 3.764-7.674 7.936-9.107 0.8-0.275 1.299-0.401 2.197-0.545 0.912-0.15 2.715-0.163 3.633-0.025z"></path>
<path fill="#ca5d4f" style="fill: var(--color1, #ca5d4f)" d="M13.624 7.070c-1.167 0.081-2.348 0.532-3.319 1.264-2.905 2.197-3.181 6.378-0.577 8.882 0.8 0.77 1.81 1.339 2.886 1.621 0.761 0.2 2.453 0.2 3.214 0 2.086-0.551 3.745-2.059 4.381-3.993 0.78-2.353-0.039-4.963-2.020-6.472-1.358-1.020-2.794-1.433-4.565-1.302zM15.238 9.098c1.935 0.438 3.358 2.272 3.22 4.156-0.072 1.077-0.446 1.834-1.279 2.629-0.4 0.376-0.689 0.588-0.99 0.732-0.826 0.382-1.010 0.419-1.967 0.419s-1.141-0.038-1.968-0.419c-0.59-0.275-1.462-1.108-1.784-1.702-0.636-1.183-0.669-2.422-0.085-3.586 0.885-1.778 2.853-2.685 4.853-2.228z"></path>
</symbol>
</defs>
</svg>



