<svg aria-hidden="true" style="position: absolute; width: 0; height: 0; overflow: hidden;" version="1.1" xmlns="http://www.w3.org/2000/svg" xmlns:xlink="http://www.w3.org/1999/xlink">
<defs>
<symbol id="icon-search__lens" viewBox="0 0 32 32">
<path fill="#999" style="fill: var(--color1, #999)" d="M31.097 28.636l-5.893-5.876c1.901-2.422 2.933-5.414 2.929-8.493 0-2.743-0.813-5.424-2.337-7.704s-3.689-4.058-6.223-5.107c-2.534-1.050-5.322-1.324-8.012-0.789s-5.161 1.856-7.1 3.795c-1.939 1.939-3.26 4.41-3.795 7.1s-0.26 5.478 0.789 8.012c1.050 2.534 2.827 4.699 5.107 6.223s4.961 2.337 7.704 2.337c3.080 0.004 6.071-1.028 8.493-2.929l5.876 5.893c0.161 0.163 0.353 0.292 0.564 0.38s0.438 0.133 0.667 0.133 0.455-0.045 0.667-0.133c0.211-0.088 0.403-0.217 0.564-0.38 0.163-0.161 0.292-0.353 0.38-0.564s0.133-0.438 0.133-0.667c0-0.229-0.045-0.455-0.133-0.667s-0.217-0.403-0.38-0.564zM3.867 14.267c0-2.057 0.61-4.068 1.753-5.778s2.767-3.043 4.667-3.83c1.9-0.787 3.991-0.993 6.009-0.592s3.87 1.392 5.325 2.846c1.454 1.454 2.445 3.308 2.846 5.325s0.195 4.109-0.592 6.009c-0.787 1.9-2.12 3.525-3.83 4.667s-3.721 1.753-5.778 1.753c-2.758 0-5.404-1.096-7.354-3.046s-3.046-4.596-3.046-7.354z"></path>
</symbol>
<symbol id="icon-shop-basket" viewBox="0 0 31 32">
<path fill="none" stroke="#f5c265" style="stroke: var(--color1, #f5c265)" stroke-linejoin="round" stroke-linecap="round" stroke-miterlimit="4" stroke-width="2.1333" d="M6.72 12.764h-3.52l2.24 13.719h19.467l1.76-13.719h-3.52M6.72 12.764l4.693-8.35M6.72 12.764h16.427M23.147 12.764l-4.693-8.35"></path>
<path fill="none" stroke="#f5c265" style="stroke: var(--color1, #f5c265)" stroke-linejoin="round" stroke-linecap="round" stroke-miterlimit="4" stroke-width="2.1333" d="M9.37 16.813v5.024"></path>
<path fill="none" stroke="#f5c265" style="stroke: var(--color1, #f5c265)" stroke-linejoin="round" stroke-linecap="round" stroke-miterlimit="4" stroke-width="2.1333" d="M15.135 16.813v5.024"></path>
<path fill="none" stroke="#f5c265" style="stroke: var(--color1, #f5c265)" stroke-linejoin="round" stroke-linecap="round" stroke-miterlimit="4" stroke-width="2.1333" d="M20.901 16.813v5.024"></path>
</symbol>
<symbol id="icon-Arrow-left-MENU" viewBox="0 0 200 32">
<path fill="#849d8a" style="fill: var(--color1, #849d8a)" d="M2.586 17.414c-0.781-0.781-0.781-2.047 0-2.828l12.728-12.728c0.781-0.781 2.047-0.781 2.828 0s0.781 2.047 0 2.828l-11.314 11.314 11.314 11.314c0.781 0.781 0.781 2.047 0 2.828s-2.047 0.781-2.828 0l-12.728-12.728zM200 18h-196v-4h196v4z"></path>
</symbol>
<symbol id="icon-Arrow-right-Menu" viewBox="0 0 200 32">
<path fill="#849d8a" style="fill: var(--color1, #849d8a)" d="M197.414 17.414c0.781-0.781 0.781-2.047 0-2.828l-12.728-12.728c-0.781-0.781-2.048-0.781-2.828 0s-0.781 2.047 0 2.828l11.314 11.314-11.314 11.314c-0.781 0.781-0.781 2.047 0 2.828s2.047 0.781 2.828 0l12.728-12.728zM0 18h196v-4h-196v4z"></path>
</symbol>
<symbol id="icon-order-icon-terms-of-del" viewBox="0 0 42 32">
<path fill="#666" style="fill: var(--color1, #666)" d="M18.895 0.126c-0.857 0.31-1.412 1.101-1.412 2.013 0 0.282 0.123 1.251 0.273 2.154s0.241 1.671 0.202 1.706c-0.039 0.035-0.434 0.135-0.878 0.222-2.373 0.464-5.15 1.765-7.262 3.4-0.76 0.589-2.297 2.117-2.939 2.922-1.788 2.244-3.143 5.171-3.645 7.874-0.289 1.557-0.363 2.484-0.364 4.56l-0.001 1.932h-1.214c-1.17 0-1.223 0.008-1.434 0.223-0.211 0.214-0.22 0.272-0.22 1.399 0 0.991 0.025 1.204 0.157 1.356 0.086 0.099 0.848 0.615 1.692 1.147l1.535 0.967h34.838l1.602-1.011c0.881-0.556 1.641-1.085 1.689-1.176s0.087-0.681 0.087-1.311c0-1.096-0.010-1.156-0.22-1.37-0.212-0.215-0.265-0.223-1.435-0.223h-1.214v-1.913c0-3.242-0.325-5.252-1.226-7.568l-0.31-0.798 0.579-0.634c1.836-2.011 2.212-5.014 0.936-7.485-0.529-1.025-1.626-2.138-2.636-2.674-2.438-1.294-5.398-0.913-7.383 0.952l-0.628 0.59-0.65-0.273c-0.896-0.376-1.974-0.7-2.983-0.897-0.707-0.138-0.85-0.194-0.85-0.334-0-0.092 0.124-0.911 0.276-1.818 0.376-2.241 0.316-2.735-0.419-3.459-0.519-0.511-0.925-0.602-2.675-0.597-1.042 0.003-1.638 0.043-1.867 0.126zM22.463 1.674c0.121 0.123 0.221 0.317 0.222 0.432s-0.126 0.996-0.283 1.959l-0.285 1.75h-1.241c-0.683 0-1.27 0.010-1.305 0.023-0.066 0.023-0.637-3.23-0.647-3.686-0.003-0.154 0.081-0.342 0.215-0.477 0.215-0.218 0.25-0.223 1.663-0.223s1.447 0.005 1.663 0.223zM33.94 6.64c0.865 0.158 1.916 0.726 2.568 1.387 1.005 1.020 1.458 2.139 1.458 3.607 0 1.458-0.453 2.588-1.437 3.586s-2.098 1.457-3.537 1.457c-1.448 0-2.552-0.459-3.557-1.478-2.4-2.434-1.707-6.615 1.343-8.106 1.071-0.524 2.027-0.661 3.162-0.453zM22.485 7.367c1.473 0.164 3.745 0.738 4.525 1.144 0.235 0.122 0.241 0.141 0.122 0.376-0.569 1.117-0.75 2.898-0.426 4.196 0.569 2.283 2.144 4.013 4.361 4.791 0.636 0.223 0.849 0.252 1.883 0.257 1.217 0.005 1.661-0.075 2.532-0.459 0.547-0.241 0.491-0.29 0.862 0.76 0.676 1.915 0.864 3.142 0.925 6.046l0.051 2.432h-33.015v-1.867c0-2.826 0.212-4.35 0.888-6.402 0.664-2.015 1.884-4.146 3.298-5.762 3.471-3.966 8.849-6.084 13.995-5.511zM32.276 9.816v1.091h-2.152v1.455h2.152v2.182h1.435v-2.182h2.152v-1.455h-2.152v-2.182h-1.435v1.091zM12.401 11.355c-3.242 2.213-5.594 5.793-6.353 9.672-0.154 0.787-0.154 0.805 0.022 1.046 0.135 0.183 0.271 0.251 0.546 0.272 0.523 0.040 0.667-0.148 0.866-1.123 0.353-1.735 1.12-3.556 2.142-5.087 0.716-1.074 2.37-2.75 3.488-3.536 0.9-0.633 1.040-0.826 0.927-1.281-0.055-0.222-0.454-0.502-0.715-0.502-0.073 0-0.489 0.243-0.923 0.54zM40.148 28.742l-0.028 0.379-2.311 1.424h-34.007l-2.368-1.466v-0.716h38.741l-0.028 0.379z"></path>
</symbol>
<symbol id="icon-payment-icon-terms-of-del" viewBox="0 0 42 32">
<path fill="#666" style="fill: var(--color1, #666)" d="M27.959 1.661c-2.35 0.909-4.355 1.734-4.457 1.832-0.182 0.175-0.185 0.267-0.185 4.878 0 4.929 0.026 5.334 0.426 6.535 0.502 1.506 1.605 3.095 2.821 4.062 0.837 0.665 5.584 3.42 5.894 3.42 0.129 0 1.045-0.472 2.121-1.094 1.042-0.601 1.932-1.093 1.979-1.093 0.051 0 0.084 1.808 0.082 4.527-0.002 4.275-0.012 4.548-0.177 4.897-0.101 0.213-0.302 0.445-0.476 0.547-0.3 0.176-0.382 0.177-16.917 0.155l-16.616-0.022-0.243-0.219c-0.527-0.474-0.499 0.083-0.499-9.794v-9.103h19.389l0.266-0.256c0.374-0.36 0.334-0.893-0.090-1.207-0.111-0.082-2.365-0.107-9.854-0.109l-9.71-0.003 0-1.115c0-1.346 0.105-1.624 0.724-1.925l0.406-0.197h18.259l0.266-0.256c0.358-0.344 0.358-0.719-0.002-1.065l-0.268-0.257-18.885 0.047-0.481 0.244c-0.95 0.481-1.498 1.227-1.665 2.265-0.055 0.345-0.079 4.656-0.063 11.445l0.026 10.892 0.257 0.535c0.32 0.666 0.853 1.176 1.562 1.494l0.546 0.245 16.419 0.026c12.022 0.019 16.564-0.001 16.962-0.074 1.030-0.189 1.778-0.744 2.217-1.645l0.241-0.494 0.025-5.354 0.025-5.354 0.702-0.698c1.23-1.222 2.058-2.735 2.446-4.473 0.15-0.669 0.166-1.222 0.166-5.497v-4.753l-0.24-0.198c-0.285-0.236-8.629-3.465-8.925-3.453-0.113 0.004-2.127 0.752-4.476 1.661zM36.279 3.124l3.593 1.384 0.025 4.238c0.021 3.597 0.003 4.343-0.12 4.933-0.297 1.422-0.985 2.636-2.086 3.68-0.631 0.598-1.067 0.889-2.986 1.996l-2.247 1.296-2.247-1.296c-1.919-1.107-2.355-1.398-2.985-1.996-1.101-1.044-1.789-2.258-2.086-3.68-0.123-0.589-0.141-1.336-0.12-4.933l0.025-4.238 3.684-1.421c2.026-0.782 3.745-1.404 3.82-1.383s1.753 0.661 3.729 1.422zM33.371 9.571l-2.053 1.967-0.908-0.872c-1.074-1.032-1.307-1.126-1.779-0.72-0.24 0.206-0.303 0.327-0.303 0.584 0 0.301 0.096 0.416 1.379 1.642 1.372 1.312 1.38 1.318 1.721 1.264 0.299-0.047 0.637-0.337 2.684-2.305 1.288-1.238 2.39-2.361 2.447-2.496 0.211-0.489-0.22-1.032-0.82-1.032-0.291 0-0.481 0.158-2.369 1.967zM5.287 25.822c-0.405 0.425-0.329 1.006 0.164 1.251 0.378 0.188 7.064 0.188 7.442 0 0.493-0.245 0.569-0.825 0.164-1.251l-0.187-0.197h-7.395l-0.187 0.197z"></path>
</symbol>
<symbol id="icon-packing-icon-terms-of-del" viewBox="0 0 35 32">
<path fill="#666" style="fill: var(--color1, #666)" d="M16.84 0.070c-2.157 0.378-3.913 1.597-4.889 3.394l-0.234 0.431-5.607 1.613c-3.084 0.887-5.688 1.657-5.787 1.709-0.297 0.158-0.408 0.5-0.253 0.783 0.041 0.075 1.005 0.999 2.141 2.052l2.066 1.915-1.329 2.048c-0.998 1.538-1.329 2.099-1.329 2.251 0 0.416 0.114 0.474 2.236 1.127l1.963 0.604v4.88c0 4.477 0.010 4.894 0.115 5.059 0.063 0.099 0.162 0.198 0.22 0.22 0.738 0.281 11.093 3.842 11.171 3.842 0.059 0 2.903-0.861 6.32-1.912 5.61-1.727 6.228-1.931 6.383-2.1l0.171-0.188v-10.053l1.067-0.312c0.586-0.171 1.51-0.44 2.052-0.597s1.052-0.343 1.133-0.413c0.18-0.154 0.248-0.378 0.187-0.609-0.030-0.112-0.755-0.829-2.089-2.065l-2.043-1.893 2.007-1.86c1.103-1.023 2.040-1.922 2.081-1.997 0.186-0.339 0.005-0.714-0.415-0.858-0.159-0.055-2.224-0.649-4.59-1.321-5.719-1.625-5.123-1.431-5.219-1.706-0.121-0.348-0.504-1.037-0.803-1.444-0.908-1.235-2.346-2.147-3.966-2.515-0.734-0.167-2.065-0.208-2.76-0.086zM19.364 1.385c1.865 0.441 3.418 1.885 3.901 3.626 0.17 0.614 0.17 1.846-0 2.439-0.731 2.551-3.424 4.154-6.206 3.696-1.89-0.312-3.56-1.64-4.164-3.313-1.066-2.956 0.913-5.976 4.29-6.546 0.458-0.077 1.667-0.023 2.179 0.098zM21.055 3.831c-0.092 0.056-0.966 0.836-1.942 1.733l-1.775 1.63-0.46-0.409c-0.253-0.225-0.532-0.444-0.619-0.487-0.236-0.116-0.582-0.032-0.785 0.19-0.35 0.384-0.205 0.653 0.861 1.601 0.662 0.589 0.856 0.69 1.184 0.614 0.194-0.045 3.983-3.466 4.359-3.936 0.265-0.331 0.256-0.557-0.035-0.826-0.259-0.24-0.517-0.276-0.787-0.11zM11.259 5.848c-0.073 0.88 0.201 2.244 0.595 2.961 0.070 0.128 0.128 0.245 0.128 0.261s-1.493 0.488-3.319 1.050l-3.319 1.021-3.384-3.127 4.587-1.324c2.523-0.729 4.625-1.327 4.67-1.329 0.062-0.003 0.072 0.12 0.041 0.488zM28.894 6.932l3.808 1.081-3.383 3.126-2.726-0.837c-1.499-0.46-2.736-0.844-2.747-0.853s0.076-0.195 0.196-0.414c0.439-0.803 0.649-1.566 0.718-2.601 0.041-0.622 0.050-0.65 0.185-0.618 0.078 0.019 1.855 0.52 3.95 1.115zM13.231 10.635c2.037 1.882 5.085 2.372 7.656 1.232 0.653-0.29 1.593-0.883 1.918-1.211l0.157-0.159 2.162 0.665c1.189 0.366 2.162 0.68 2.162 0.697s-2.24 0.722-4.978 1.564l-4.978 1.531-4.978-1.531c-2.738-0.842-4.978-1.546-4.978-1.564 0-0.022 4.68-1.499 5.334-1.684 0.010-0.003 0.244 0.204 0.52 0.459zM10.983 14.314l5.333 1.642-1.056 1.626c-0.581 0.894-1.066 1.636-1.079 1.648s-2.463-0.729-5.444-1.647l-5.421-1.669 0.084-0.143c0.046-0.079 0.525-0.822 1.065-1.652 0.714-1.098 1.009-1.501 1.084-1.478 0.056 0.017 2.503 0.769 5.436 1.673zM31.029 14.158l1.675 1.548-5.705 1.652c-3.138 0.909-5.735 1.66-5.773 1.67-0.069 0.018-2.718-3.019-2.697-3.092 0.013-0.046 10.564-3.315 10.722-3.322 0.056-0.003 0.856 0.692 1.777 1.543zM19.327 18.912c1.34 1.551 1.362 1.567 1.966 1.408 0.186-0.049 1.93-0.551 3.875-1.116s3.568-1.027 3.606-1.027c0.047 0 0.070 1.467 0.070 4.498v4.498l-5.333 1.641c-2.933 0.902-5.371 1.654-5.418 1.669-0.067 0.023-0.085-1.309-0.085-6.527 0-3.663 0.026-6.529 0.058-6.496s0.599 0.686 1.26 1.451zM16.627 30.42c-0.016 0.014-2.141-0.704-4.724-1.597l-4.696-1.623-0.017-4.386c-0.010-2.413-0.009-4.387 0.001-4.387s1.617 0.493 3.572 1.095c1.955 0.602 3.621 1.095 3.704 1.095 0.368 0 0.495-0.136 1.329-1.42l0.825-1.271 0.017 6.234c0.009 3.429 0.004 6.246-0.011 6.26zM10.323 23.175c-0.215 0.085-0.375 0.285-0.417 0.521-0.032 0.182-0.004 0.253 0.165 0.429 0.168 0.174 0.252 0.21 0.481 0.21 0.794 0 0.891-1.062 0.108-1.182-0.112-0.017-0.264-0.007-0.339 0.022zM12.821 24.030c-0.404 0.186-0.493 0.68-0.171 0.956 0.214 0.183 1.654 0.703 1.97 0.711 0.559 0.015 0.859-0.598 0.495-1.008-0.113-0.127-1.438-0.632-1.88-0.717-0.126-0.024-0.283-0.002-0.414 0.058zM10.214 25.839c-0.359 0.18-0.416 0.691-0.107 0.957 0.198 0.17 4.27 1.577 4.564 1.577 0.587 0 0.831-0.747 0.352-1.077-0.224-0.154-4.248-1.549-4.463-1.547-0.093 0.001-0.249 0.042-0.346 0.091z"></path>
</symbol>
<symbol id="icon-delivery-icon-terms-of-del" viewBox="0 0 35 32">
<path fill="#666" style="fill: var(--color1, #666)" d="M17.607 0.113c-1.335 0.377-2.428 1.359-3.024 2.71-0.312 0.717-0.405 1.298-0.369 2.28 0.050 1.246 0.398 2.144 1.2 3.072l0.348 0.408-0.263 0.091c-1.377 0.468-2.719 2.061-3.393 4.039-0.163 0.476-0.156 0.46-0.305 0.317-0.362-0.347-0.447-0.355-4.146-0.355-3.947 0-3.798-0.015-4.352 0.596-0.227 0.257-0.284 0.37-0.284 0.611 0 0.332 0.177 0.581 0.426 0.604 0.327 0.038 0.454-0.015 0.696-0.264 0.256-0.264 0.263-0.264 0.902-0.264h0.639v0.989c0 0.544 0.028 1.049 0.071 1.125 0.128 0.249 0.469 0.302 1.917 0.302s1.789-0.053 1.917-0.302c0.043-0.075 0.071-0.604 0.071-1.178v-1.034l0.596 0.038c0.717 0.038 0.93 0.159 1.036 0.596 0.050 0.196 0.071 1.102 0.057 2.589-0.021 2.582-0.028 2.612-0.554 2.763-0.192 0.053-1.299 0.076-3.294 0.060-2.939-0.023-3.017-0.030-3.216-0.181-0.106-0.091-0.206-0.219-0.22-0.287-0.021-0.106 0.064-0.121 0.653-0.121 0.809 0 0.965-0.098 0.965-0.604 0-0.513-0.156-0.604-0.994-0.604h-0.71v-1.208h0.426c0.334 0 0.454-0.030 0.568-0.151 0.192-0.204 0.192-0.702 0-0.906-0.135-0.143-0.234-0.151-1.846-0.151s-1.711 0.008-1.846 0.151c-0.192 0.204-0.192 0.702 0 0.906 0.121 0.128 0.234 0.151 0.852 0.151h0.71v1.208h-1.278c-1.186 0-1.285 0.008-1.42 0.151-0.192 0.204-0.192 0.702 0 0.906 0.135 0.143 0.234 0.151 1.42 0.151h1.278v0.204c0.007 0.513 0.49 1.208 1.029 1.465 0.248 0.121 0.49 0.143 1.895 0.143h1.619l-0.256 0.355c-0.348 0.491-0.632 1.11-0.916 2.008-0.348 1.125-0.461 1.782-0.511 2.929-0.057 1.389-0.092 1.351 1.249 1.351h0.98l0.121 0.506c0.199 0.898 0.568 1.578 1.207 2.257 0.632 0.664 1.015 0.921 1.817 1.223 0.469 0.174 0.646 0.196 1.42 0.196s0.951-0.023 1.42-0.196c0.802-0.302 1.186-0.559 1.817-1.223 0.639-0.679 1.008-1.359 1.207-2.257l0.121-0.506h8.476l0.114 0.513c0.334 1.434 1.2 2.597 2.414 3.216 0.781 0.4 1.193 0.498 2.059 0.498 0.831 0 1.42-0.151 2.109-0.529 1.342-0.747 2.25-2.144 2.406-3.729 0.284-2.77-1.547-5.179-4.096-5.39l-0.589-0.053-0.994-2.446c-0.539-1.351-0.973-2.461-0.958-2.476s0.107 0.008 0.213 0.053c0.106 0.038 0.383 0.076 0.618 0.076 0.738 0 0.703 0.159 0.703-3.020 0-2.672 0-2.718-0.149-2.876-0.135-0.143-0.213-0.159-0.696-0.128-0.916 0.060-1.817 0.672-2.208 1.502-0.085 0.181-0.17 0.347-0.185 0.362s-0.142-0.083-0.291-0.219c-0.461-0.438-0.823-0.559-1.548-0.536-1.675 0.060-1.846 0.023-2.321-0.43-0.27-0.257-0.745-0.876-1.008-1.314l-0.128-0.204 0.312-0.083c0.618-0.174 1.122-0.702 1.342-1.419 0.043-0.143 0.185-0.362 0.319-0.483 0.319-0.302 0.554-0.83 0.504-1.163-0.021-0.136-0.156-0.453-0.291-0.687-0.248-0.438-0.433-1.087-0.369-1.283 0.021-0.053 0.085-0.098 0.142-0.098 0.206 0 0.327-0.317 0.327-0.853 0-2.016-1.455-3.933-3.386-4.461-0.547-0.151-1.761-0.151-2.293 0zM19.879 1.464c0.504 0.189 0.859 0.445 1.285 0.921 0.433 0.483 0.625 0.83 0.795 1.434l0.106 0.385-1.143 0.030c-1.036 0.023-1.178 0.045-1.455 0.196-0.447 0.249-0.809 0.634-1.051 1.087-0.199 0.393-0.206 0.43-0.227 1.623l-0.028 1.215-0.362-0.113c-0.575-0.181-0.902-0.385-1.37-0.861-0.76-0.778-1.058-1.593-1.008-2.74 0.021-0.604 0.057-0.762 0.291-1.276 0.752-1.691 2.549-2.514 4.167-1.902zM21.583 5.707c0.007 0.43 0.128 0.906 0.369 1.449 0.241 0.536 0.248 0.476-0.177 0.785-0.071 0.053-0.17 0.272-0.227 0.491-0.227 0.944-0.618 1.102-1.775 0.71l-0.426-0.143-0.021-1.049c-0.021-1.306 0.057-1.759 0.376-2.106 0.284-0.294 0.618-0.393 1.37-0.408l0.511-0.008v0.279zM18.395 9.95c0.618 0.249 1.093 0.725 1.895 1.887 0.596 0.883 1.157 1.464 1.64 1.721 0.22 0.113 0.405 0.211 0.412 0.211s-0.064 0.234-0.163 0.528c-0.092 0.287-0.17 0.687-0.17 0.891 0 0.355-0.007 0.355-0.192 0.31-0.114-0.023-0.518-0.211-0.909-0.408-0.852-0.438-1.441-0.974-2.002-1.834-0.405-0.611-0.611-0.77-0.916-0.687-0.227 0.060-0.454 0.377-0.454 0.627 0 0.204 0.291 0.762 0.61 1.163l0.17 0.219-0.241 0.355c-0.298 0.43-0.731 1.374-0.795 1.721l-0.043 0.249h-4.763l0.050-0.498c0.121-1.23 0.582-2.997 1.044-3.971 0.752-1.585 1.853-2.567 3.031-2.687 0.625-0.068 1.306 0.008 1.796 0.204zM28.398 14.486v1.668l-0.199-0.113c-0.916-0.506-1.157-1.812-0.497-2.695 0.085-0.113 0.611-0.521 0.667-0.521 0.014 0 0.028 0.747 0.028 1.661zM24.919 13.928c0.312 0.136 0.518 0.393 0.667 0.845l0.099 0.302-0.341 0.159c-0.405 0.189-1.072 0.355-1.682 0.423l-0.447 0.045v-0.385c0-0.642 0.355-1.193 0.902-1.397 0.355-0.136 0.461-0.136 0.802 0.008zM8.521 14.486v0.604h-1.704v-1.208h1.704v0.604zM19.68 15.868c0.554 0.4 1.398 0.785 2.023 0.921 0.256 0.060 0.476 0.121 0.497 0.143 0.021 0.015 0.398 1.729 0.852 3.797 0.866 3.986 0.887 4.159 0.618 4.718-0.213 0.445-0.454 0.657-0.454 0.4 0-0.219-0.348-0.845-0.603-1.079-0.284-0.272-0.753-0.544-0.923-0.544-0.099 0-0.114-0.219-0.099-2.023 0.007-1.857-0.007-2.053-0.142-2.514-0.369-1.238-1.342-2.242-2.52-2.604l-0.454-0.136 0.135-0.37c0.121-0.325 0.525-1.034 0.589-1.034 0.014 0 0.227 0.151 0.483 0.325zM27.503 19.582l1.327 3.284-1.235 1.834-1.228 1.827-1.867 0.045 0.206-0.438c0.518-1.102 0.504-1.314-0.426-5.541-0.426-1.963-0.781-3.593-0.781-3.624 0-0.038 0.17-0.068 0.383-0.068 0.504 0 1.292-0.181 1.803-0.408 0.22-0.098 0.426-0.181 0.447-0.189 0.028 0 0.646 1.472 1.37 3.276zM17.905 18.185c0.717 0.113 1.214 0.34 1.654 0.762 0.738 0.725 0.887 1.351 0.887 3.82v1.381h-2.257l-0.028-1.079c-0.021-0.974-0.043-1.11-0.213-1.502-0.241-0.559-0.795-1.147-1.32-1.404-0.405-0.204-0.412-0.204-2.307-0.226-1.675-0.023-1.903-0.038-1.867-0.136 0.021-0.068 0.043-0.476 0.043-0.906v-0.785h2.47c1.356 0 2.676 0.038 2.939 0.076zM16.081 21.333c0.334 0.189 0.61 0.491 0.788 0.853 0.106 0.219 0.135 0.528 0.163 1.857l0.043 1.593 0.227 0.46 0.227 0.468h-10.641v-0.309c0-1.163 0.76-3.473 1.384-4.212 0.312-0.362 0.973-0.74 1.462-0.83 0.213-0.038 1.661-0.068 3.223-0.060 2.761 0.015 2.847 0.023 3.124 0.181zM31.060 23.749c1.406 0.453 2.378 1.849 2.378 3.412 0 1.993-1.469 3.556-3.337 3.556-1.484 0-2.811-1.049-3.223-2.552l-0.106-0.393h1.114l0.050 0.219c0.064 0.31 0.461 0.876 0.795 1.14 0.405 0.317 0.817 0.453 1.377 0.453 0.944 0 1.718-0.521 2.101-1.411 0.149-0.34 0.185-0.536 0.185-1.012 0-0.521-0.035-0.664-0.227-1.079-0.255-0.559-0.582-0.898-1.122-1.155-0.49-0.242-1.235-0.257-1.782-0.038l-0.376 0.151 0.128-0.204c0.071-0.113 0.291-0.445 0.483-0.747l0.355-0.536 0.426 0.045c0.234 0.015 0.589 0.091 0.781 0.151zM21.568 25.531c0.263 0.151 0.511 0.536 0.511 0.785 0 0.143-0.050 0.166-0.547 0.211-0.774 0.083-1.917 0.008-2.258-0.143-0.327-0.143-0.71-0.513-0.859-0.823l-0.106-0.211 1.512 0.023c1.292 0.023 1.548 0.045 1.746 0.159zM30.669 26.21c0.682 0.483 0.682 1.434 0 1.918-0.405 0.294-1.037 0.211-1.377-0.196l-0.135-0.159h0.61c0.738 0 0.902-0.106 0.902-0.604 0-0.491-0.163-0.604-0.894-0.604-0.561 0-0.603-0.008-0.518-0.128 0.334-0.423 1.001-0.528 1.413-0.226zM10.324 27.969c0.121 0.506 0.674 1.14 1.242 1.419 0.461 0.219 1.398 0.219 1.86 0 0.568-0.279 1.122-0.913 1.242-1.419 0.043-0.189 0.064-0.196 0.603-0.196h0.554l-0.107 0.393c-0.412 1.502-1.739 2.552-3.223 2.552s-2.811-1.049-3.223-2.552l-0.107-0.393h0.554c0.54 0 0.561 0.008 0.603 0.196zM13.305 27.931c-0.206 0.242-0.49 0.37-0.809 0.37s-0.603-0.128-0.809-0.37l-0.135-0.159h1.888l-0.135 0.159z"></path>
</symbol>
</defs>
</svg>



