<svg aria-hidden="true" style="position: absolute; width: 0; height: 0; overflow: hidden;" version="1.1" xmlns="http://www.w3.org/2000/svg" xmlns:xlink="http://www.w3.org/1999/xlink">
<defs>
<symbol id="icon-search__lens" viewBox="0 0 32 32">
<path fill="#999" style="fill: var(--color1, #999)" d="M31.097 28.636l-5.893-5.876c1.901-2.422 2.933-5.414 2.929-8.493 0-2.743-0.813-5.424-2.337-7.704s-3.689-4.058-6.223-5.107c-2.534-1.050-5.322-1.324-8.012-0.789s-5.161 1.856-7.1 3.795c-1.939 1.939-3.26 4.41-3.795 7.1s-0.26 5.478 0.789 8.012c1.050 2.534 2.827 4.699 5.107 6.223s4.961 2.337 7.704 2.337c3.080 0.004 6.071-1.028 8.493-2.929l5.876 5.893c0.161 0.163 0.353 0.292 0.564 0.38s0.438 0.133 0.667 0.133 0.455-0.045 0.667-0.133c0.211-0.088 0.403-0.217 0.564-0.38 0.163-0.161 0.292-0.353 0.38-0.564s0.133-0.438 0.133-0.667c0-0.229-0.045-0.455-0.133-0.667s-0.217-0.403-0.38-0.564zM3.867 14.267c0-2.057 0.61-4.068 1.753-5.778s2.767-3.043 4.667-3.83c1.9-0.787 3.991-0.993 6.009-0.592s3.87 1.392 5.325 2.846c1.454 1.454 2.445 3.308 2.846 5.325s0.195 4.109-0.592 6.009c-0.787 1.9-2.12 3.525-3.83 4.667s-3.721 1.753-5.778 1.753c-2.758 0-5.404-1.096-7.354-3.046s-3.046-4.596-3.046-7.354z"></path>
</symbol>
<symbol id="icon-shop-basket" viewBox="0 0 31 32">
<path fill="none" stroke="#f5c265" style="stroke: var(--color1, #f5c265)" stroke-linejoin="round" stroke-linecap="round" stroke-miterlimit="4" stroke-width="2.1333" d="M6.72 12.764h-3.52l2.24 13.719h19.467l1.76-13.719h-3.52M6.72 12.764l4.693-8.35M6.72 12.764h16.427M23.147 12.764l-4.693-8.35"></path>
<path fill="none" stroke="#f5c265" style="stroke: var(--color1, #f5c265)" stroke-linejoin="round" stroke-linecap="round" stroke-miterlimit="4" stroke-width="2.1333" d="M9.37 16.813v5.024"></path>
<path fill="none" stroke="#f5c265" style="stroke: var(--color1, #f5c265)" stroke-linejoin="round" stroke-linecap="round" stroke-miterlimit="4" stroke-width="2.1333" d="M15.135 16.813v5.024"></path>
<path fill="none" stroke="#f5c265" style="stroke: var(--color1, #f5c265)" stroke-linejoin="round" stroke-linecap="round" stroke-miterlimit="4" stroke-width="2.1333" d="M20.901 16.813v5.024"></path>
</symbol>
<symbol id="icon-Arrow-left-MENU" viewBox="0 0 200 32">
<path fill="#849d8a" style="fill: var(--color1, #849d8a)" d="M2.586 17.414c-0.781-0.781-0.781-2.047 0-2.828l12.728-12.728c0.781-0.781 2.047-0.781 2.828 0s0.781 2.047 0 2.828l-11.314 11.314 11.314 11.314c0.781 0.781 0.781 2.047 0 2.828s-2.047 0.781-2.828 0l-12.728-12.728zM200 18h-196v-4h196v4z"></path>
</symbol>
<symbol id="icon-Arrow-right-Menu" viewBox="0 0 200 32">
<path fill="#849d8a" style="fill: var(--color1, #849d8a)" d="M197.414 17.414c0.781-0.781 0.781-2.047 0-2.828l-12.728-12.728c-0.781-0.781-2.048-0.781-2.828 0s-0.781 2.047 0 2.828l11.314 11.314-11.314 11.314c-0.781 0.781-0.781 2.047 0 2.828s2.047 0.781 2.828 0l12.728-12.728zM0 18h196v-4h-196v4z"></path>
</symbol>
</defs>
</svg>



